<?xml version="1.0" encoding="utf-8"?>
<!-- Generator: Adobe Illustrator 19.0.0, SVG Export Plug-In . SVG Version: 6.00 Build 0)  -->
<svg version="1.1" id="Layer_1" xmlns="http://www.w3.org/2000/svg" xmlns:xlink="http://www.w3.org/1999/xlink" x="0px" y="0px"
	 viewBox="0 0 30.8 27.5" style="enable-background:new 0 0 30.8 27.5;" xml:space="preserve">
<style type="text/css">
	.st0{fill:#0F4C63;}
	.st1{fill:#178FCF;}
	.st2{fill:#66BCE5;}
	.st3{fill:#6EB3C3;}
	.st4{fill:#07A6DD;}
</style>
<g id="XMLID_62_">
	<path id="XMLID_99_" class="st0" d="M18.1,18.6c-0.5,0-0.9-0.2-1.2-0.6c-0.3-0.4-0.5-0.9-0.5-1.5v-0.9c0-0.6,0.2-1.1,0.5-1.5
		c0.3-0.4,0.7-0.6,1.2-0.6h3.6v1h-3.6c-0.2,0-0.4,0.1-0.6,0.3c-0.2,0.2-0.3,0.5-0.3,0.8v0.9c0,0.3,0.1,0.6,0.3,0.8
		c0.2,0.2,0.4,0.3,0.6,0.3h3.6v1H18.1z"/>
	<path id="XMLID_63_" class="st0" d="M16.5,15.5c0-0.6,0.2-1.1,0.5-1.5c0.3-0.4,0.7-0.6,1.1-0.6h3.6v0.8h-3.6
		c-0.3,0-0.5,0.1-0.7,0.4c-0.2,0.2-0.3,0.5-0.3,0.9v0.9c0,0.3,0.1,0.6,0.3,0.9c0.2,0.2,0.4,0.4,0.7,0.4h3.6v0.8h-3.6
		c-0.4,0-0.8-0.2-1.1-0.6c-0.3-0.4-0.5-0.9-0.5-1.5V15.5z"/>
</g>
<rect id="XMLID_48_" x="9.7" y="8.6" class="st1" width="2.8" height="10.9"/>
<rect id="XMLID_47_" x="17.4" y="0.7" class="st2" width="2.8" height="3"/>
<rect id="XMLID_44_" x="13.5" y="4.6" class="st3" width="2.8" height="6.9"/>
<rect id="XMLID_43_" x="17.4" y="4.6" class="st2" width="2.8" height="3"/>
<rect id="XMLID_42_" x="21.2" y="4.6" class="st2" width="2.8" height="3"/>
<rect id="XMLID_39_" x="5.8" y="8.6" class="st1" width="2.8" height="3"/>
<rect id="XMLID_38_" x="17.4" y="8.6" class="st2" width="2.8" height="3"/>
<rect id="XMLID_37_" x="25.1" y="8.6" class="st2" width="2.8" height="3"/>
<rect id="XMLID_34_" x="5.8" y="12.6" class="st4" width="2.8" height="3"/>
<rect id="XMLID_33_" x="2" y="16.5" class="st2" width="2.8" height="3"/>
<rect id="XMLID_30_" x="5.8" y="16.5" class="st4" width="2.8" height="3"/>
<rect id="XMLID_27_" x="5.8" y="20.4" class="st4" width="2.8" height="3"/>
<rect id="XMLID_24_" x="9.7" y="20.4" class="st4" width="2.8" height="3"/>
<rect id="XMLID_21_" x="13.5" y="20.4" class="st1" width="2.8" height="3"/>
<rect id="XMLID_18_" x="17.4" y="20.4" class="st1" width="2.8" height="6.9"/>
<rect id="XMLID_15_" x="21.2" y="20.4" class="st3" width="2.8" height="3"/>
<rect id="XMLID_12_" x="25.1" y="20.4" class="st3" width="2.8" height="3"/>
<rect id="XMLID_9_" x="9.7" y="24.3" class="st4" width="2.8" height="3"/>
<rect id="XMLID_5_" x="21.2" y="24.3" class="st1" width="2.8" height="3"/>
</svg>
