<?xml version="1.0" encoding="utf-8"?>
<!-- Generator: Adobe Illustrator 19.0.0, SVG Export Plug-In . SVG Version: 6.00 Build 0)  -->
<svg version="1.1" id="Layer_1" xmlns="http://www.w3.org/2000/svg" xmlns:xlink="http://www.w3.org/1999/xlink" x="0px" y="0px"
	 viewBox="-381 383 100 100" style="enable-background:new -381 383 100 100;" xml:space="preserve">
<style type="text/css">
	.st0{fill:#FFFFFF;}
</style>
<circle class="st0" cx="-317.1" cy="432.3" r="11.4"/>
<path class="st0" d="M-325.1,420.3l-7.3-3.5l0.4,0.9l3,6.5C-327.9,422.6-326.6,421.3-325.1,420.3z"/>
<path class="st0" d="M-331.2,429.5l-0.2,0.1l-7.4,2.6l7.6,2.7c-0.2-0.9-0.3-1.8-0.3-2.7S-331.4,430.4-331.2,429.5z"/>
<path class="st0" d="M-314.3,418.1l-2.7-7.8l-0.3,0.9l-2.4,6.9c0.9-0.2,1.8-0.3,2.7-0.3C-316.1,417.8-315.2,417.9-314.3,418.1z"/>
<path class="st0" d="M-305.2,424.1l3.5-7.4l-0.9,0.4l-6.5,3.1C-307.5,421.3-306.2,422.6-305.2,424.1z"/>
<path class="st0" d="M-302.9,435l7.6-2.7l-7.6-2.7c0.2,0.9,0.3,1.8,0.3,2.7S-302.7,434.1-302.9,435z"/>
<path class="st0" d="M-319.8,446.5l0.1,0.3l2.6,7.5l2.7-7.8c-0.9,0.2-1.8,0.3-2.7,0.3C-318,446.7-318.9,446.6-319.8,446.5z"/>
<path class="st0" d="M-309,444.3l7.3,3.5l-3.5-7.4C-306.2,441.9-307.5,443.2-309,444.3z"/>
<path class="st0" d="M-329,440.4l-0.1,0.2l-3.3,7.1l7.3-3.5C-326.6,443.3-327.9,442-329,440.4z"/>
<path class="st0" d="M-357.2,432.3c0-8.5,6.6-15.4,15-15.9c-2.3-1-4.8-1.6-7.4-1.6c-9.7,0-17.6,7.9-17.6,17.6s7.9,17.6,17.6,17.6
	c2.6,0,5.1-0.6,7.4-1.6C-350.5,447.7-357.2,440.8-357.2,432.3z"/>
<path class="st0" d="M-295.7,397.5c-9.1-9.1-21.5-14.7-35.3-14.7c-27.6,0-50,22.4-50,50c0,7.2,1.5,14,4.3,20.2l5.2-2.4
	c-2.4-5.5-3.8-11.5-3.8-17.8c0-24.4,19.9-44.3,44.3-44.3c12.2,0,23.3,5,31.3,13l-6.9,6.9h12.6h3.6v-4.8v-11.4L-295.7,397.5z"/>
<path class="st0" d="M-285.3,412.6l-5.2,2.4c2.4,5.5,3.8,11.5,3.8,17.9c0,24.4-19.9,44.3-44.3,44.3c-12.2,0-23.3-5-31.3-13l7-7H-368
	h-3.5v5v11.2l5.1-5.1c9.1,9.1,21.5,14.7,35.3,14.7c27.6,0,50-22.4,50-50C-281,425.6-282.5,418.8-285.3,412.6z"/>
</svg>
