<?xml version="1.0" encoding="utf-8"?>
<!-- Generator: Adobe Illustrator 19.0.0, SVG Export Plug-In . SVG Version: 6.00 Build 0)  -->
<svg version="1.1" id="Layer_1" xmlns="http://www.w3.org/2000/svg" xmlns:xlink="http://www.w3.org/1999/xlink" x="0px" y="0px"
	 viewBox="-231 295.3 400.5 274.7" style="enable-background:new -231 295.3 400.5 274.7;" xml:space="preserve">
<style type="text/css">
	.st0{display:none;}
	.st1{display:inline;fill:none;stroke:#000000;stroke-width:5;stroke-miterlimit:10;}
	.st2{display:inline;}
	.st3{display:inline;fill:#010101;}
	.st4{fill:none;stroke:#000000;stroke-width:3.4615;}
	.st5{fill:#FFFFFF;}
	.st6{fill:#88DC00;}
</style>
<g id="CIRCLE" class="st0">
	<ellipse class="st1" cx="-139" cy="972.6" rx="197.8" ry="195"/>
</g>
<g id="ADVISE" class="st0">
	<g id="_x37_aubkQ.tif" class="st2">
		<g id="XMLID_1_">
			<path id="XMLID_42_" d="M-67,1009.9c6,0,11.6,0,17.2,0c1.6,0,2.5,0.3,3.3,1.9c8.2,17.2,16.6,34.4,24.9,51.6
				c0.3,0.5,0.5,1.1,0.8,2c-78.4,0-156.6,0-235.2,0c0.4-0.9,0.8-1.7,1.2-2.6c9.1-16.9,18.2-33.8,27.2-50.7c0.9-1.7,1.9-2.3,3.8-2.3
				c6.9,0.1,13.8,0,21,0c0-7,0.2-13.7-0.1-20.3c-0.3-5.7,2.4-9.2,7.3-11.4c2.1-0.9,4.3-1.7,6.5-2.5c2-0.7,3.2-1.9,2.7-4.1
				c-1-4.1-1.9-8.3-3.3-12.3c-1.8-5.1-2.5-10.1-0.9-15.2c2.6-8.4,10.6-13.1,19.3-11.5c8.5,1.6,14.4,9.5,13.5,18.7
				c-0.4,3.6-1.8,7-2.7,10.6c-0.7,2.3-1.6,4.6-2.1,7c-0.8,3.8-0.1,4.8,3.5,6.3c1.1,0.5,2.3,0.8,3.8,1.4c0.3-3.5,0.6-6.7,0.9-9.9
				s0.6-6.5,0.9-9.7c0.5-7,2.6-13.3,8-18.2c1.5-1.3,2.6-3,4.1-4.8c-0.8-0.4-1.4-0.7-2-1c-10.6-4.5-16.7-16.6-14-27.8
				c3.4-13.9,19.2-20.3,31.1-12.3c8,5.4,12.7,12.6,11.3,22.9c-0.8,5.9-0.5,6,5.4,5.8c4-0.2,7.9-0.7,11.9-0.4c7,0.6,12.2,4.7,16.5,10
				c7.1,8.8,10.6,19.1,12.4,30.1C-66.1,977.2-64.9,993.2-67,1009.9z M-129.8,1009.7c19,0,37.8,0,56.7,0c2.3-17,0.9-33.6-2.1-50.2
				c-1.7-9.3-5-18-11.2-25.3c-4.5-5.3-9.9-8.1-17.2-7.1c-3.4,0.5-6.9,0.5-10.3,0.4c-4.4-0.2-6.7-2.5-7.1-6.8c-0.2-2,0-4.1,0.1-6.1
				c0.6-8.4-4.5-16.1-12.6-18.6c-2-0.6-4.3-0.8-6.3-0.4c-8.9,1.7-13.9,9.9-11.8,18.8c1.6,7,5.6,11.7,12.6,13.9
				c5.7,1.7,6.3,4.1,2.6,8.8c-2.2,2.8-4.9,5.3-6.8,8.2c-1.6,2.4-3.3,5.3-3.6,8.1c-2.1,19.6-3.8,39.2-5.7,58.8
				c-0.6,5.8-1.2,11.5-5.2,16.2c-0.6,0.7-0.9,1.7-1.4,2.6c1.3,0,2.3-0.3,3-1c1.1-1.2,2.1-2.5,3-3.8c1-1.4,2-2.1,3.8-1.2
				c2.1,1,3.6,0.1,4.2-2.1c0.4-1.4,0.5-2.8,0.7-4.2c0.6-5.4,0.8-10.9,1.7-16.2c1.3-7.8,3.2-15.5,4.8-23.5
				C-129.6,988.1-131.8,999.4-129.8,1009.7z M-158.3,1009.7c0.2-0.7,0.4-1.3,0.4-1.9c0.5-5.6,1-11.1,1.4-16.7
				c0.2-2.3,1.2-5.1,0.2-6.8c-0.9-1.6-3.9-2.1-6-3c-5.8-2.6-8-6.5-6.8-13c0.7-3.5,2-6.8,3-10.2c0.6-2.1,1.5-4.2,1.8-6.4
				c1-6.5-3.3-12.4-9.4-13c-6.4-0.6-11.3,4-11.2,11.1c0,2.8,1,5.5,1.7,8.3c0.9,3.4,2.3,6.7,3,10.2c1.3,6.7-1.1,10.7-7.3,13.3
				c-0.8,0.3-1.7,0.6-2.6,0.9c-6.2,2.2-6.6,2.8-6.6,9.4c0,6,0,11.9,0,17.9C-183.6,1009.7-171,1009.7-158.3,1009.7z"/>
		</g>
	</g>
</g>
<g id="Layer_2" class="st0">
	<g class="st2">
		<path d="M-144.5,961.6l61.7-29.7l1.7-3.8l-65.9,31.7l-47.9-34.2l-26.6,12.8l47.9,34.1l-98.3,47.3l2.4,1.8l98.4-47.3l119.8,85.4
			l26.6-12.7L-144.5,961.6z M-195.3,941c-2,1-5.6,0.4-8.1-1.3c-2.4-1.7-2.7-3.9-0.6-4.9c2-1,5.6-0.4,8,1.3
			C-193.5,937.9-193.2,940.1-195.3,941z"/>
		<path d="M-225.3,940.3l37.4,26.7l-74.7,35.9c-10.4-7.4-11.6-16.8-2.8-21l33.5-16.1c3.2-1.5,2.7-7,2.4-11.8
			C-232.7,948.5-231.4,943.2-225.3,940.3z"/>
		<path d="M-78.6,914.4l-74.7,35.9l-37.4-26.7c6.1-2.9,15.3-2.6,23.8,0.3c8,1.1,17,2.5,20.2,0.9l33.5-16.1
			C-104.5,904.5-89,907-78.6,914.4z"/>
		<polygon points="-32.8,907.9 -57,919.5 -55.3,915.7 -35.4,906.1 		"/>
		<path d="M-44.2,885.8L-80.4,967c-1.4,3.1-4.7,4.8-7.9,4.2l-6,13.4c-0.2,0.5-1.1,0.5-1.9,0.1c-0.7-0.3-1.2-0.9-1.2-1.3
			c0-0.1,0-0.1,0.1-0.2l6-13.4c-1.1-0.8-1.9-2-2.4-3.1c-0.7-1.7-0.7-3.7,0.1-5.5l36.2-81.3c0.6-1.4,2.2-2,3.6-1.4l8.2,3.7
			C-44.2,882.8-43.6,884.4-44.2,885.8z"/>
		<polygon points="-29.6,1033.8 -93.9,987.8 -91.4,986.3 -26.9,1032.4 		"/>
	</g>
</g>
<g id="Layer_5" class="st0">
	<path class="st2" d="M-127.8,1017.8l-6.2-21.6c1.8-1.6,3.5-3.3,5.1-5.1l21.6,6.2c2.3-3.3,4.2-6.8,6-10.5l-16-15.5
		c0.8-2.3,1.5-4.6,1.9-7l21.7-5.4c0.2-2,0.3-4,0.3-6.1s-0.2-4-0.3-6l-21.7-5.4c-0.5-2.4-1.2-4.7-1.9-7l16-15.5
		c-1.8-3.6-3.7-7.2-6-10.5l-21.6,6.2c-1.6-1.8-3.3-3.5-5.1-5.1l6.2-21.6c-3.3-2.3-6.8-4.2-10.5-6l-15.5,16.1c-2.3-0.8-4.6-1.4-7-1.9
		l-5.4-21.7c-2-0.2-4-0.3-6.1-0.3s-4,0.2-6,0.3l-5.4,21.7c-2.4,0.5-4.7,1.1-7,1.9l-15.5-16.1c-3.6,1.8-7.1,3.7-10.5,6l6.2,21.6
		c-1.8,1.6-3.5,3.3-5.1,5.1l-21.6-6.2c-2.3,3.3-4.2,6.8-6,10.5l16.1,15.5c-0.8,2.3-1.4,4.6-1.9,7l-21.7,5.4c-0.2,2-0.3,4-0.3,6
		s0.2,4,0.3,6.1l21.7,5.4c0.5,2.4,1.2,4.7,1.9,7l-16.1,15.5c1.8,3.6,3.7,7.2,6,10.5l21.6-6.1c1.6,1.8,3.3,3.5,5.1,5.1l-6.2,21.6
		c3.3,2.3,6.8,4.2,10.5,6l15.6-16.1c2.3,0.8,4.6,1.4,7,1.9l5.4,21.7c2,0.2,4,0.3,6.1,0.3c2.1,0,4.1-0.2,6.1-0.3l5.4-21.7
		c2.4-0.5,4.7-1.2,7-1.9l15.5,16.1C-134.7,1022.1-131.2,1020.1-127.8,1017.8z M-172.4,979.8c-14.9,0-27-12.1-27-27s12.1-27,27-27
		c14.9,0,27,12.1,27,27S-157.5,979.8-172.4,979.8z M-49.5,1036.1c0.2-4.3-0.5-8.8-1.8-13.1l9.9-14.1c-1.5-2.8-3.2-5.4-5.1-7.8
		l-16.8,3.5c-3.4-2.8-7.3-5.1-11.4-6.8l-4.8-16.5c-3.1-0.5-6.2-0.8-9.3-0.8l-7.7,15.4c-2.2,0.5-4.5,1-6.6,1.8s-4,1.8-5.8,2.8
		l-15.9-6.5c-2.4,2.1-4.5,4.3-6.4,6.8l7.2,15.6c-2.1,3.9-3.5,8.1-4.1,12.6l-15,8.4c0.2,3.1,0.6,6.1,1.3,9.3l16.7,4.1
		c1.8,4.1,4.3,7.9,7.3,11.1l-2.8,17c2.5,1.8,5.2,3.4,8.1,4.8l13.6-10.5c4.3,1.2,8.8,1.5,13.2,1.2l11.5,12.7c1.6-0.5,3.1-0.9,4.7-1.5
		c1.5-0.5,2.8-1.2,4.1-1.8l0.2-17.2c3.6-2.7,6.8-5.9,9.1-9.5l17.1-1.1c1.2-2.8,2.2-5.8,2.9-8.8L-49.5,1036.1z M-82.5,1052.1
		c-9.5,3.6-20.2-1.2-23.8-10.7c-3.6-9.5,1.1-20.2,10.7-23.8c9.5-3.6,20.2,1.2,23.8,10.7C-68.2,1037.8-73,1048.4-82.5,1052.1z"/>
</g>
<g id="Layer_4" class="st0">
	<path class="st2" d="M-19.3,994h-12.2v-86.7h0.9c3.2,0,5.8-2.6,5.8-5.8s-2.6-5.8-5.8-5.8h-5.8L-184,862.4l-0.6-6.4l0,0
		c0,0,0,0,0-0.3c-0.3-2.9-2.6-5.2-5.8-5.2c-3.2,0-5.8,2.6-5.8,5.8l0,0l-0.6,7.5l-56.2,31.9h-5.2c-3.2,0-5.8,2.6-5.8,5.8
		s2.6,5.8,5.8,5.8h6.7l0,0l0,0h51l-14.5,165.9h-4.6c-3.2,0-5.8,2.6-5.8,5.8s2.6,5.8,5.8,5.8h58.9c3.2,0,5.8-2.6,5.8-5.8
		s-2.6-5.8-5.8-5.8h-4.6l-14.5-165.8H-43v86.7h-12.2c-6.1,0-11.3,4.9-11.3,11.3v21.5c0,6.1,4.9,11.3,11.3,11.3H-19
		c6.1,0,11.3-4.9,11.3-11.3v-21.5C-8,999.2-13.2,994-19.3,994z M-183.7,996.6l0.6,5.2l-2.9-2.9L-183.7,996.6z M-190.4,1022.1
		l-8.1-8.1l0.3-3.5l7.8-7.8l7.8,7.8l0.3,3.5L-190.4,1022.1z M-181.7,1021.9l0.9,10.1l-5.5-5.5L-181.7,1021.9z M-194.4,1026.2
		l-5.5,5.5l0.9-10.1L-194.4,1026.2z M-190.4,994.9l-5.8-5.8l0.3-4.1l5.5-5.5l5.5,5.5l0.3,4.1L-190.4,994.9z M-185.7,976l-0.6-0.6
		l0.6-0.6V976z M-190.4,931.1l0.9,0.9l0.3,3.8l-1.2,1.2l-1.2-1.2l0.3-3.8L-190.4,931.1z M-190.4,923L-190.4,923L-190.4,923
		L-190.4,923L-190.4,923z M-190.4,945l2,2l0.3,2.6l-2.3,2.3l-2.3-2l0.3-2.6L-190.4,945z M-190.4,960.4l3.5,3.5l0.3,3.5l-4.1,4.1
		l-4.1-4.1l0.3-3.5L-190.4,960.4z M-195,976v-1.2l0.6,0.6L-195,976z M-196.7,996.6l2.3,2.3l-2.9,2.9L-196.7,996.6z M-229.8,895.7
		l31.6-18l-1.4,18H-229.8z M-201.7,1052.6l7.2,7.2l-8.7,8.7L-201.7,1052.6z M-199.6,1073.2l9.3-9.3l9.3,9.3H-199.6z M-177.6,1068.5
		l-8.7-8.7l7.2-7.2L-177.6,1068.5z M-179.9,1040.7l0.3,4.1l-10.7,10.7l-10.7-10.7l0.3-4.1l10.4-10.4L-179.9,1040.7z M-181.1,895.7
		l-1.7-21.5l93.9,21.5H-181.1z M-19.6,1026.5h-35.7v-20.6h35.7V1026.5z"/>
</g>
<g id="Layer_6" class="st0">
	<path class="st2" d="M-60.6,1013.6l-42.1-22.6c2.8-5.5,4.2-11.8,4.2-18.5c0-10.9-3.9-20.6-10.6-28.2l30-23.6
		c12.7,14.3,41.1,1.8,33.7-20.3c-8.3-25.4-46.7-12.9-38.4,12.5c0.5,1.6,1.2,3.2,2.1,4.6l-30.3,24c-7.6-7.2-18-11.8-29.3-11.8
		c-2.5,0-5.1,0.2-7.6,0.7l-6.9-30.5c3.5-1.6,6-5.1,6-9.9c0-15-22.6-15-22.6,0c0,8.1,6.7,11.8,12.7,11.1l6.9,30.3
		c-15.3,4.4-27,16.9-30.3,32.6l-23.3-8.1c0.5-1.8,0.7-3.7,0.7-6c0-26.1-39.1-26.1-39.1,0c0,22.2,28.4,25.4,36.7,9.7l24.3,8.3
		c-0.2,1.4-0.2,3-0.2,4.6c0,10.9,4.2,20.8,10.9,28.4l-28,12.7c-6.5-12.5-29.6-10.2-29.6,7.9c0,20.8,31.2,20.8,31.2,0
		c0-1.4-0.2-2.5-0.2-3.7l29.8-13.6c7.6,6.9,17.8,11.3,28.9,11.3c1.2,0,2.5,0,3.7-0.2l4.6,37.4c-3.5,0.5-6.7,2.3-9.7,6
		c-13.2,16.2,11.3,35.8,24.5,19.6c9-11.3,0-24.3-10.6-25.7l-4.6-37.9c12.2-2.3,22.6-9.7,28.9-19.9l42.1,22.4
		c-0.2,1.2-0.5,2.5-0.5,3.9c0,17.3,26.1,17.3,26.1,0C-36.8,1007.2-54.2,1004.6-60.6,1013.6z"/>
</g>
<g id="Layer_7" class="st0">
	<g class="st2">
		<path d="M-339.1,1137.6c0-36.4,0-72.9,0-109.3c0.2-0.4,0.5-0.9,0.7-1.3c4.2-18.6,18.6-30.1,37.8-30.2c19-0.1,37.9,0,56.9,0
			c1.4,0,2.8,0,4.5,0c0-1.9,0-3.4,0-4.9c0-59.7,0-119.4,0-179.2c0-16.7,10.2-30.6,25.7-35.7c2.1-0.7,4.2-1.2,6.2-1.9
			c78.5,0,157,0,235.5,0c0.8,0.3,1.7,0.6,2.5,0.8c13.9,3.5,23.2,11.9,27.8,25.3c0.6,1.8,1.1,3.6,1.6,5.4c0,77.5,0,155,0,232.4
			c-0.2,0.3-0.5,0.6-0.6,1c-4.8,19.7-18.7,30.6-39,30.6c-60.1,0-120.2,0-180.4,0c-1.5,0-3,0-4.4,0c-0.1,0.9-0.2,1.1-0.2,1.4
			c0,20,0,40,0,60c-0.1,17.8-12.2,32.6-29.8,36.4c-0.7,0.2-1.4,0.5-2.1,0.8c-36.9,0-73.8,0-110.7,0c-0.8-0.3-1.6-0.6-2.5-0.8
			c-13.6-3.4-22.8-11.6-27.6-24.6C-337.9,1141.8-338.4,1139.7-339.1,1137.6z M-35.3,850.9c0.4,0.5,0.7,1,1.1,1.5
			c-1.3,0.9-2.8,1.6-3.8,2.6c-81,79.9-162,159.8-242.9,239.6c-1,1-2.1,1.9-3,3c-3.2,3.8-3.9,8.1-2.1,12.6c1.7,4.5,5.2,7,9.9,7.6
			c5.2,0.8,8.8-1.8,12.3-5.3c81.2-80.2,162.5-160.3,243.7-240.5c1-1,1.5-2.7,2.2-4c0.6,0.4,1.2,0.9,1.8,1.3c0,1.4,0,2.7,0,4.1
			c0,20.8,0,41.6,0,62.3c0,8,6,13.4,13.7,12.7c6.8-0.7,11.2-6,11.2-13.8c0-31.2,0-62.3,0-93.5c0-10.4-4.7-14.9-15.3-14.9
			c-17.5,0-35.1,0-52.6,0c-14.3,0-28.6,0-42.9,0c-6.6,0-11.3,3.2-13,8.4c-2.7,8.2,3.1,16,12.4,16.1c14.8,0.2,29.6,0,44.4,0
			C-50.6,850.9-43,850.9-35.3,850.9z"/>
	</g>
</g>
<g id="Layer_8" class="st0">
	<path class="st2" d="M-307.7,949.1h113.5c15.4,0.1,28.6,12.5,28.6,28.6c0,7.9-3.2,15-8.4,20.2c-0.4,0.4-0.9,0.9-1.4,1.3h-2
		c-10.1,0-18.9-7.4-20.9-17.2h4.1c3.8,0,5.7-4.7,3-7.3c-0.8-0.8-1.9-1.3-3-1.3h-10.1c-1.9,8.5,1.8,18,7.6,23.8
		c5,5,11.8,8.1,19.4,8.1h77.1c7.5,0,14.4-3.1,19.4-8.1c5.8-5.8,9.5-15.3,7.6-23.8h-10.1c-3.8,0-5.7,4.7-3,7.3c0.8,0.8,1.9,1.3,3,1.3
		h4.1c-2,9.8-10.8,17.2-20.9,17.2h-2c-0.5-0.4-0.9-0.8-1.4-1.3c-16.8-16.8-6.8-45.4,16.4-48.5l3.8-0.3H30.2
		c15.7,0,28.6,12.8,28.6,28.6c0,15.7-12.8,28.6-28.6,28.6h-80c4-7.1,6.5-15,7.2-23.2l72.6,0.1c3.1,0,5.6-2.5,5.6-5.6
		S33.1,972,30,972l-72.6-0.1c-2.3,0-4.8,0.1-5.7,1.4h-0.4c2.7,30-21.4,56.2-51.5,56.2c-25.7,0-51.4,0-77.1,0
		c-14.2,0-27.2-5.8-36.5-15.2c-10.4-10.4-16.4-25.5-15-41h-0.4c-0.9-1.3-3.4-1.4-5.7-1.4l-72.6,0.1c-3.1,0-5.6,2.5-5.6,5.6
		s2.5,5.6,5.6,5.6l72.6-0.1c0.7,8.2,3.2,16.1,7.2,23.2h-80c-15.7,0-28.6-12.8-28.6-28.6C-336.2,961.9-323.4,949.1-307.7,949.1
		L-307.7,949.1z"/>
	<path class="st2" d="M0.1,1060.2c1.7-2.9,0.7-6.6-2.2-8.2l-42.5-24.6c-3.8-2.2-7.8,0.7-8.2,2.2c-1.7,2.9-0.7,6.6,2.2,8.2l42.5,24.6
		C-5.4,1064-1.3,1063.1,0.1,1060.2L0.1,1060.2z"/>
	<path class="st2" d="M-58.6,1118.9c-3,1.5-6.5,0.8-8.2-2.2l-24.6-42.5c-2.2-3.8,0.7-7.8,2.2-8.2c2.9-1.7,6.6-0.7,8.2,2.2l24.6,42.5
		C-54.7,1113.6-55.7,1117.3-58.6,1118.9L-58.6,1118.9z"/>
	<path class="st2" d="M-138.8,1140.4c-3.3,0-6-2.7-6-6v-49.1c0-3.3,2.7-6,6-6s6,2.7,6,6v49.1
		C-132.8,1137.7-135.5,1140.4-138.8,1140.4L-138.8,1140.4z"/>
	<path class="st2" d="M-219,1118.9c-2.9-1.5-3.8-5.5-2.2-8.2l24.6-42.5c1.7-2.9,5.4-3.9,8.2-2.2c1.5,0.4,4.4,4.4,2.2,8.2l-24.6,42.5
		C-212.4,1119.6-216.1,1120.6-219,1118.9L-219,1118.9z"/>
	<path class="st2" d="M-277.7,1060.2c1.7,2.9,5.4,3.9,8.2,2.2l42.5-24.6c2.9-1.7,3.9-5.4,2.2-8.2c-0.4-1.5-4.4-4.4-8.2-2.2
		l-42.5,24.6C-278.5,1053.8-279.2,1057.2-277.7,1060.2L-277.7,1060.2z"/>
	<path class="st2" d="M-277.7,899.9c1.5-2.9,5.5-3.8,8.2-2.2l42.5,24.6c2.9,1.7,3.9,5.4,2.2,8.2c-0.4,1.5-4.4,4.4-8.2,2.2
		l-42.5-24.6C-278.3,906.4-279.3,902.7-277.7,899.9L-277.7,899.9z"/>
	<path class="st2" d="M-219,841.2c3-1.5,6.5-0.8,8.2,2.2l24.6,42.5c2.2,3.8-0.7,7.8-2.2,8.2c-2.9,1.7-6.6,0.7-8.2-2.2l-24.6-42.5
		C-222.8,846.5-221.8,842.8-219,841.2L-219,841.2z"/>
	<path class="st2" d="M0.1,899.9c1.5,3,0.8,6.5-2.2,8.2l-42.5,24.5c-3.8,2.2-7.8-0.7-8.2-2.2c-1.7-2.9-0.7-6.6,2.2-8.2l42.5-24.6
		C-5.2,896-1.5,897,0.1,899.9L0.1,899.9z"/>
	<path class="st2" d="M-58.6,841.2c2.9,1.5,3.8,5.5,2.2,8.2L-81,891.9c-1.7,2.9-5.4,3.9-8.2,2.2c-1.5-0.4-4.4-4.4-2.2-8.2l24.6-42.5
		C-65.2,840.5-61.5,839.5-58.6,841.2L-58.6,841.2z"/>
	<path class="st2" d="M-138.8,819.7c3.3,0,6,2.7,6,6v49.1c0,3.3-2.7,6-6,6s-6-2.7-6-6v-49.1C-144.8,822.4-142.1,819.7-138.8,819.7
		L-138.8,819.7z"/>
	<path class="st2" d="M-109.2,954.8c1.3-1.7,2.9-3.3,5.1-5c6-4.3,13.2-6.8,20.7-6.8h17.9c-9.4-7.9-20.8-12.5-33.7-12.5
		c-26.4,0-52.8,0-79.2,0c-12.9,0-24.2,4.6-33.7,12.5h17.9c7.5,0,14.7,2.5,20.7,6.8c2.3,1.6,3.9,3.3,5.1,5H-109.2z"/>
</g>
<g id="Layer_9" class="st0">
	<g class="st2">
		<path d="M-106.8,951.9c0-5.4-4.9-9.7-10.9-9.7h-36.5c-6.1,0-10.9,4.3-10.9,9.7v28.8h-13v62.5h84.3v-62.5h-13L-106.8,951.9
			L-106.8,951.9z M-130.8,1014.6v12.5h-10.6v-12.7c-1.5-1.4-2.5-3.5-2.5-5.7c0-3.8,2.7-6.8,6.2-7.6h3.4c3.5,0.8,6.2,3.8,6.2,7.6
			C-128,1011.1-129.1,1013.2-130.8,1014.6z M-121.2,980.8h-29.5v-24.1h29.5V980.8z"/>
		<path d="M25.3,951.3c0-1.4,0.1-2.8,0.1-4.1C25.4,884-25.8,832.8-89,832.8c-37.7,0-71.1,18.2-91.9,46.3c-9.3-3.6-19.4-5.7-30-5.7
			c-41.3,0-75.4,30.3-81.6,69.8c-28,15.4-46.8,43.2-46.8,75.1c0,48.4,43.3,87.7,96.7,87.7H-37c53.4,0,96.7-39.3,96.7-87.7
			C59.7,991.4,46.4,967.4,25.3,951.3z M-136,1073.4c-44.5,0-80.6-36.1-80.6-80.6c0-44.5,36.1-80.6,80.6-80.6s80.6,36.1,80.6,80.6
			C-55.3,1037.3-91.4,1073.4-136,1073.4z"/>
	</g>
</g>
<g id="Layer_10" class="st0">
	<path class="st3" d="M10,936.4c-8.3-8.7-18.6-14.6-29.7-17c-14-24.5-38-39.4-64.4-39.4c-12.6,0-24.8,3.5-35.8,10
		c-17-29.4-46.1-47.6-78.4-47.6c-47.7,0-87,39.6-92.7,91.6c-2.1,2-4,4.1-5.8,6.4c-11.5,6.5-19.8,18.3-22.9,32.1
		c-10.5,12.3-16.4,28.6-16.4,45.7c0,36.6,26.7,66.4,59.5,66.4c1.2,0,2.3-0.1,3.4-0.1c0.7,0.1,1.5,0.1,2.4,0.1H0c0.7,0,1.4,0,2.1-0.1
		c31.9-1.6,56.7-30.6,56.7-66.3c0-17.1-5.9-33.4-16.4-45.7C38.5,954.9,25.9,940.8,10,936.4z M0.5,1050.8H0.2c-0.3,0-0.5,0-0.8,0.1
		h-269.7l-2.2-0.3l-1.6,0.2c-0.8,0.1-1.6,0.1-2.5,0.1c-16.2,0-29.3-14.7-29.3-32.7c0-9.4,3.7-18.3,10.1-24.6l4.4-4.3l0.6-6.5
		c0.6-5.8,4-10.8,8.9-13l3.8-1.7l2.5-3.6c2.1-3,4.5-5.5,7.2-7.4l6.6-4.7l0.3-8.7c1.5-37.9,29.2-67.5,63.1-67.5
		c26.1,0,49.2,17.6,58.8,44.9l8,22.7l16.2-16.4c8.6-8.7,19.7-13.5,31.1-13.5c17.7,0,33.6,11.1,41.5,28.9l4,8.9l8.9,0.4
		c8,0.4,15.4,4.3,20.8,11.2l3.9,4.9l5.9,0.7c6.6,0.8,11.9,6.7,12.6,14l0.6,6.5l4.4,4.3c6.4,6.2,10.1,15.2,10.1,24.6
		C28.7,1035.9,16.3,1050.2,0.5,1050.8z"/>
</g>
<g id="Layer_11" class="st0">
	<g class="st2">
		<path d="M-71.2,839c10.1,15.8,32.4,19.7,50,8.8c17.5-11,24.1-32.9,14-48.6c-9.6-15.8-32.4-19.7-50-8.8S-80.8,822.8-71.2,839z"/>
		<path d="M-72,853.5c-23.7-3.1-59.6,43.8-63.1,57.8s-1.8,20.6,14,20.6s29.8,0,29.8,0s31.1,61.8,50,64.4
			c18.8,2.2,90.7-43.8,95.5-49.5c9.2-10.5-1.8-21.9-16.7-15.8c-7,3.1-60,24.1-60,24.1C-37,955.1-51,881-51,881S-48.4,856.5-72,853.5
			z"/>
		<path d="M-112.8,840.3c0,0-12.7-3.1-20.2-2.6c-7,0.4-78,3.1-85.9,7c-7.9,3.9-50,71-50,71s-1.3,7.9,3.9,9.6
			c5.3,1.8,17.1-0.9,24.5-7s35.9-38.1,44.7-40.8c8.8-3.1,35.1,4.4,35.1,4.4L-112.8,840.3z"/>
		<path d="M-113.7,974.4l-52.6,35.9c0,0,21,35.5,14,32.9c-14.9-5.3-53.9,7.9-53.9,7.9l-24.5,25.4c0,0,99,0,113.1-0.4
			c14.5-0.4,32.4-17.5,28.5-28.9C-93.1,1035.8-113.7,974.4-113.7,974.4z"/>
		<path d="M-334.1,1147.1c2.6-3.9,7.4-24.1,38.1-72.3c0,0-17.5-1.8-14.5-14.5c3.1-12.3,21.9-8.3,31.6-8.8
			c15.8-35.9,25.9-49.1,30.7-55.2c12.7-15.8,42.5-17.1,57.8-10.5c15.3,6.1,11.4,25.9,5.7,32.9c-5.7,6.6-120.9,129.3-128.4,138
			c-7.4,8.3-18,7.9-21.9,3.1C-339.3,1154.5-334.1,1147.1-334.1,1147.1z"/>
	</g>
</g>
<g id="Layer_12" class="st0">
	<g class="st2">
		<path d="M42.4,959.8c7.6-33.5,1.4-66.2-17.4-91C6.2,844.1-23.5,830-56.5,830c-15.5,0-31.5,3.2-46.6,9.3
			c-17.1-15.7-39.5-24.5-63-24.5c-49.5,0-90.1,38.7-93.2,87.3c-44.3,7.3-78.1,45.9-78.1,92.2c0,45.9,33.6,84.7,78.1,92.1
			c16.3,29.7,47.5,48.5,81.9,48.5c24.2,0,47.2-9.4,64.6-26c4.4,0.8,8.9,1.2,13.4,1.2c25.3,0,48.7-12.5,62.9-32.7
			c7.2,2.3,14.7,3.4,22.2,3.4c40.7,0,73.9-33.1,73.9-73.9C59.4,989.6,53.3,972.9,42.4,959.8z M-14.5,1049.7
			c-7.4,0-14.7-1.9-21.2-5.6l-15-8.5l-6.9,15.8c-7.3,16.8-23.8,27.6-42,27.6c-4.7,0-9.3-0.7-13.8-2.1l-9.8-3.1l-6.6,7.8
			c-11.9,14.1-29.3,22.1-47.6,22.1c-25.1,0-47.6-14.9-57.4-38l-3.7-8.8l-9.5-0.6c-32.7-2.1-58.3-29.5-58.3-62.2
			c0-34.4,28-62.4,61.6-62.5h18.6l-1.9-17.2c-0.2-2.1-0.4-4.3-0.4-6.5c0-34.4,28-62.4,62.4-62.4c18.4,0,35.7,8.1,47.6,22.1l7.9,9.3
			l10.9-5.5c13.8-7,28.8-10.7,43.2-10.7c23.3,0,44,9.7,56.8,26.6c14.5,19,18.1,45.3,10.1,72.2l-2.7,9.2l7,6.5
			c8.8,8.2,13.7,19.4,13.7,31.3C28.4,1030.4,9.2,1049.7-14.5,1049.7z"/>
		<path d="M-93.9,959.2h-29.6v-29.6c0-8.5-6.9-15.5-15.5-15.5c-8.5,0-15.5,6.9-15.5,15.5v29.6h-29.6c-8.5,0-15.5,6.9-15.5,15.5
			s6.9,15.5,15.5,15.5h29.6v29.7c0,8.5,6.9,15.5,15.5,15.5s15.5-6.9,15.5-15.5v-29.7h29.6c8.5,0,15.5-6.9,15.5-15.5
			C-78.4,966.1-85.3,959.2-93.9,959.2z"/>
	</g>
</g>
<g id="Layer_13" class="st0">
	<g class="st2">
		<path d="M-139,835.3c-90.1,0-164.5,69-173.2,157c3.8-1.4,7.9-2.1,12.1-2.1c5.4,0,10.5,1.3,15.1,3.4c2-8.6,7.1-15.8,13.9-20.9
			c16-58,68.8-100.5,132-100.5S-22.9,914.6-7,972.7c6.9,5,11.9,12.3,13.9,20.9c4.6-2.1,9.7-3.4,15.1-3.4c4.3,0,8.3,0.8,12.1,2.1
			C25.5,904.3-48.9,835.3-139,835.3z"/>
		<path d="M-139,896.3c-47,0-87.4,28.9-104.4,69.9c9.7,1.7,17.9,7.4,23.2,15.2c11.5-33.8,43.3-57.9,81.2-57.9s69.7,24.1,81.2,57.9
			c5.3-7.9,13.5-13.5,23.2-15.2C-51.6,925.2-92,896.3-139,896.3z"/>
		<path d="M-139,944.6c-27,0-50.2,16.7-59.9,40.3c2.5-0.6,5.2-0.8,7.9-0.8c3.9,0,7.7,0.7,11.3,1.8c8.1-14.1,23.2-23.5,40.7-23.5
			s32.6,9.5,40.7,23.5c3.6-1.2,7.3-1.8,11.3-1.8c2.7,0,5.3,0.3,7.9,0.8C-88.8,961.3-112,944.6-139,944.6z"/>
		<path class="st4" d="M-249.7,965.6c-17.1,0-31.5,11.9-35.2,27.9c-4.6-2.1-9.7-3.4-15.1-3.4c-20,0-36.2,16.2-36.2,36.2
			c0,20,16.2,36.2,36.2,36.2c7.2,0,13.8-2.2,19.4-5.8c2.8,17.2,17.7,30.3,35.6,30.3c19.7,0,35.8-15.8,36.2-35.4
			c5.3,3,11.3,4.6,17.8,4.6c20,0,36.2-16.1,36.2-36.1s-16.2-36-36.2-36c-9.1,0-17.4,3.4-23.8,9
			C-218.7,977.3-232.8,965.6-249.7,965.6L-249.7,965.6z"/>
		<path class="st4" d="M-28.3,965.6c17.1,0,31.5,11.9,35.2,27.9c4.6-2.1,9.7-3.4,15.1-3.4c20,0,36.2,16.2,36.2,36.2
			c0,20-16.2,36.2-36.2,36.2c-7.2,0-13.8-2.2-19.4-5.8c-2.8,17.2-17.7,30.3-35.6,30.3c-19.7,0-35.8-15.8-36.2-35.4
			c-5.3,3-11.3,4.6-17.8,4.6c-20,0-36.2-16.1-36.2-36.1s16.2-36.2,36.2-36.2c9.1,0,17.4,3.4,23.8,9
			C-59.3,977.3-45.2,965.6-28.3,965.6L-28.3,965.6z"/>
	</g>
</g>
<g id="Layer_14" class="st0">
	<g class="st2">
		<path d="M-86,834.8c8.8,1.5,17.7,2.2,26.2,4.6c50,13.8,83.3,57.6,83.9,109.4c0,2.1,0.9,4.9,2.4,6.2c47,38.6,41.4,107.8-14.1,139.2
			c-14.7,8.3-30.5,12.8-47.3,12.8c-70.3,0.2-140.7,0.3-211,0c-22.2-0.1-42.3-7.3-59.9-21.1c-45.1-35.4-44.6-98.8,1.6-132.9
			c7.6-5.6,12.2-11.4,15.1-20.7c13.5-43.2,59.5-66.2,103.1-52.4c3.5,1.1,5.3,0.6,7.7-2.2c20.8-25.2,47.6-39.4,80.3-42
			c1.4-0.1,2.8-0.5,4.3-0.8C-91.2,834.8-88.6,834.8-86,834.8z M-76.1,1091.5c9.9,0,19.8,0.4,29.6-0.1c8.5-0.4,17.2-1,25.5-3
			c28.8-7,50.6-22.4,60-52.2c3.5-11.1,3.6-21.8,0-32.8c-5.3-15.9-14.7-28.6-27.2-39.5c-1.9-1.6-2.9-4.8-3.3-7.4
			c-0.8-5.1-0.4-10.4-1.2-15.5c-5.7-34.9-21.7-62.8-54.8-78.6c-14.8-7.1-30.3-12.6-46.8-10.8c-28.1,3.1-52.6,14.1-71,36.7
			c-2.6,3.2-5.8,7.3-9.3,8c-5.7,1.1-11.9,0.1-17.7-0.7c-7-0.9-14.2-4.3-20.9-3.5c-33.6,4.3-53.6,20.7-61.8,52.3
			c-2.3,8.8-7,14.4-14.3,18.8c-20.8,12.5-31.9,32-33.2,55.2c-1.1,19.5,8.1,37.2,23,50.1c18.6,16.2,41.1,22.8,65.6,22.8
			C-181.4,1091.5-128.8,1091.5-76.1,1091.5z"/>
		<path d="M-139.8,974c1.6-0.7,3.2-1.1,4.5-2s2.4-2.3,3.5-3.4c-1.6-1-3.2-2.6-5-2.9c-5.7-0.8-8.4-3.6-7.6-8.8
			c0.6-3.9,3.3-5.1,6.7-5.9c2.1-0.5,4-1.7,6-2.6c-1.6-1.5-3.3-2.9-4.8-4.5c-1.6-1.8-4.3-3.9-4.2-5.8c0.1-2.5,1.9-5.7,4-7.1
			c1.7-1.2,4.8,0,7.3-0.2c1.8-0.1,3.6-0.7,5.4-1.1c0.2-0.7,0.3-1.4,0.5-2.2c-1.5-1.2-3.1-2.2-4.6-3.5c-3.5-3-3.3-6.4-0.7-9.8
			c2.5-3.3,5.6-4.1,9.3-1.7c0.8,0.5,1.6,1.3,2.5,1.4c1.4,0.2,3.1,0.3,4.2-0.4c0.6-0.4,0.3-2.5,0-3.7c-0.6-2.8-2.6-6-1.8-8.3
			c1.7-5,9-7.4,13.2-1.5c1,1.4,3.2,1.8,4.8,2.7c0.4-1.8,1.3-3.8,1-5.5c-0.7-4.3-0.2-7.7,4.5-9.3c4.3-1.5,6.8-0.4,9.2,3.7
			c1.2,2,3.1,3.5,4.7,5.2c1-2,2.4-4,2.9-6.1c1.3-5.5,5.2-7.9,10.2-5.4c1.6,0.8,2.6,2.9,3.6,4.6c0.5,0.9,0,2.4,0.4,3.3
			c0.7,1.5,1.9,2.7,2.8,4c1.2-1.1,2.9-1.9,3.6-3.3c1.6-3.2,3-5.9,7.4-5.6c5.7,0.5,8.1,4,6.8,10.1c-0.3,1.6,0.3,3.5,0.5,5.2
			c1.7-0.7,3.9-1,5.2-2.2c4.3-3.9,6.8-4.5,10.5-1.8c3.9,2.8,4,5.4,1.2,11c-0.7,1.5-0.4,3.5-0.6,5.2c1.7-0.2,3.6,0,5.1-0.7
			c5.4-2.6,8.4-2.1,11.1,2.2c2.6,4.2,0.9,7.1-2.5,10.1c-1.3,1.1-1.5,3.4-2.2,5.2c1.6,0.2,3.2,0.9,4.7,0.6c5.7-1.1,8.4,0.2,10.1,5.4
			c1.7,5.1-1.5,6.8-5.3,8.7c-1.6,0.8-2.5,2.8-3.7,4.2c1.6,0.9,3.1,2.4,4.7,2.5c4.1,0.3,6.9,1.5,7.1,6.1c0.2,5.9-0.6,7.1-6.2,8.3
			c-0.5,0.1-1,0.2-1.4,0.4c-1.7,0.8-3.4,1.7-5,2.6c1.4,1.3,2.7,3,4.4,3.9c5.5,3,6.8,7,3.4,11.8c-2.5,3.5-5.9,2.3-9.2,2
			c-1.5-0.1-3.1,0.4-4.6,0.6c0.6,1.7,0.7,3.7,1.8,4.9c4.7,5.1,5.2,6.7,2.2,10.8c-2.3,3.1-5.3,4.2-8.9,2.2c-1.4-0.8-2.8-1.8-4.3-2.2
			c-0.9-0.3-2.4,0-3,0.7c-0.6,0.6-0.7,2.1-0.5,3c0.3,1.2,1.1,2.3,1.8,3.4c2.5,4.1,0.9,7.2-2.6,9.4c-3.2,2-6.4,2-9-1.2
			c-0.7-0.9-1.4-1.9-2.3-2.5c-1-0.6-2.7-1.5-3.3-1.1c-1,0.7-1.5,2.2-1.8,3.5c-0.2,0.9,0.2,1.9,0.4,2.8c1,4.5-0.7,7.5-5.1,8.8
			c-4,1.1-7,0.1-8.5-4.2c-0.3-0.8-0.4-1.7-1-2.2c-1.2-1-2.6-1.8-3.9-2.7c-0.8,1.2-1.6,2.4-2.2,3.8c-1.2,2.5-1.6,6-3.6,7.4
			c-4.8,3.5-10.8-0.2-11.3-6.2c-0.2-1.9-1.7-3.6-2.6-5.4c-1.4,1.3-3.2,2.5-4.1,4.1c-2.5,4.6-5.4,6.2-9.7,4.4
			c-4.1-1.8-5.9-4.6-4.1-9.3c0.6-1.6-0.6-3.8-1-5.7c-1.7,0.8-3.8,1.3-5.1,2.6c-4.8,4.5-9.3,4.1-12.7-1.2c-2.1-3.3,0.1-5.4,1.3-8
			c0.7-1.5,0.6-3.3,0.9-5c-1.8,0.1-3.9-0.4-5.4,0.3c-5.4,2.5-8.3,2.2-10.9-1.9c-2.2-3.3-2.3-6.3,1.1-8.9c0.9-0.7,2-1.4,2.5-2.3
			c0.6-1.3,1.2-3,0.7-4.1c-0.3-0.8-2.4-1.3-3.6-1.2c-1.9,0.1-3.8,0.7-6,1.2c0.2,0.7,0.4,1.6,0.7,2.4c2.3,6.1,0.4,9.6-5.9,11.1
			c-1.1,0.3-2.2,0.5-3.2,1.1c-2.5,1.4-2.6,3.8,0,5.1c1.1,0.6,2.4,0.8,3.7,1.2c4.7,1.5,6.2,4.3,5.1,9.4c-0.9,3.9-4.1,5.8-8.5,5.2
			c-0.3,0-0.7-0.2-0.9-0.2c-1.7,0.5-3.3,1-5,1.5c0.8,1.5,1.1,3.5,2.3,4.4c2.7,2.2,5.6,3.7,4.9,8.1c-0.9,5.3-4.7,7.9-9.8,6.4
			c-1.4-0.4-2.7-1.5-4-1.6c-1.2-0.1-2.9,0.5-3.7,1.3c-0.5,0.5,0.1,2.2,0.4,3.3c0.3,0.9,1,1.7,1.7,2.4c3.4,3.6,2.8,6.8-0.5,10.1
			c-3.8,3.6-5.6,3.6-10,0.1c-1-0.8-2-1.9-3.1-2.3c-1.1-0.4-2.6-0.4-3.5,0.2c-0.6,0.3-0.8,1.9-0.7,2.9c0.1,1.3,0.7,2.5,1.1,3.7
			c1.5,4.3,0,7.2-4,9c-4.1,1.9-7.2,0.9-9.5-2.9c-0.7-1.1-1.2-2.4-2.1-3.2c-0.8-0.7-2.3-1.5-3.2-1.2c-1,0.3-2,1.6-2.3,2.6
			c-0.4,1.3-0.3,2.9-0.1,4.3c0.6,4.7-2.3,6.5-6.2,6.9c-3.9,0.4-7.1-0.6-7.9-5.1c-0.1-0.3-0.2-0.6-0.4-0.9c-1.2-1.8-2.4-3.6-3.6-5.4
			c-1.3,1.8-3,3.5-3.8,5.5c-2.2,5.3-5.6,7-10.6,4.2c-1.7-1-2.8-3.5-3.6-5.5c-0.5-1.2,0.3-2.9-0.1-4.3c-0.3-1.4-1.2-3.3-2.1-3.6
			c-1.1-0.3-2.9,0.8-3.8,1.9c-5,6.1-7.1,6.9-11.9,3.6c-3-2-4.5-4.6-2.7-8.3c0.6-1.3,1.3-2.7,1.5-4.1c0.2-1,0.1-2.5-0.5-3
			c-0.9-0.6-2.4-0.8-3.4-0.5c-1.3,0.4-2.4,1.6-3.6,2.4c-3.5,2.5-6.6,2-9.5-1.1c-2.7-2.9-3-5.9-0.8-9.2c0.3-0.4,0.7-0.7,0.9-1.2
			c0.8-2,1.5-4.1,2.2-6.1c-2.2,0-4.7-0.5-6.7,0.2c-4.5,1.7-7.1,0.1-9.1-3.7c-2.1-4-1.3-7.1,2.5-9.5c1.1-0.7,2.4-1.2,3.2-2.1
			c0.7-0.9,1.4-2.4,1.1-3.3c-0.2-0.8-1.7-1.6-2.7-1.8c-1.6-0.3-3.2,0.1-4.8-0.1c-4-0.5-5.7-3-6.1-6.9c-0.4-4,1.2-6.5,5-7.7
			c0.3-0.1,0.7,0,1-0.1c1.9-1.1,3.8-2.3,5.8-3.5c-1.7-1.3-3.3-3.2-5.3-3.8c-4.7-1.4-6-4.4-5.3-8.9c0.7-4.5,3.4-6.3,7.9-6
			c1.3,0.1,2.7,0.5,3.9,0.2c1.1-0.3,2.5-1.1,2.9-2c0.3-0.8-0.5-2.3-1.3-3.1c-1.1-1.1-2.7-1.8-3.9-2.8c-3.2-2.7-2.7-6-0.9-9.1
			c1.8-3,4.2-4.9,8-3.4c0.1,0.1,0.3,0.1,0.5,0.1c2.6,0.5,5.5,4.1,7.5,0.3c0.7-1.4-1.3-4.7-2.7-6.7c-2.6-3.7-1.2-6.4,1.4-9
			c2.7-2.5,5.6-4.1,9-1c0.4,0.3,0.7,0.7,1.1,0.9c2.1,0.8,4.2,1.6,6.4,2.3c0-2.2,0.4-4.6-0.2-6.6c-1.4-4.3-0.3-7.2,3.8-9.1
			c3.9-1.8,7.2-1.3,9.6,2.6c0.3,0.4,0.3,1.1,0.7,1.3c1.7,0.9,3.4,1.7,5.1,2.5c0.7-1.6,1.4-3.1,2-4.7c1-2.5,1.3-5.8,3-7.4
			c2.5-2.2,6.2-2.3,8.8,0.3c1.5,1.5,2.1,3.9,3.2,5.8c0.8,1.4,1.9,2.7,2.9,4c1.1-1.3,2.8-2.4,3.3-3.9c2.2-5.8,5.2-7.9,10-6.2
			c3.2,1.1,5.4,2.9,4.9,6.7c-0.2,1.6-0.2,3.3,0.1,4.8c0.2,1,0.9,2.4,1.6,2.6c1,0.3,2.6-0.1,3.4-0.8c1.1-0.9,1.8-2.3,2.6-3.5
			c2.6-3.7,5.9-3.5,9.4-1.5c3.4,2,5.5,4.6,3.3,8.8c-0.2,0.4-0.5,0.9-0.5,1.4c-0.2,1.9-0.3,3.8-0.5,5.7c2-0.4,4.3-0.3,5.9-1.3
			c4.9-3.1,8.6-3.2,11.2,1.3c1.2,2.1,0.6,5.5,0.2,8.2c-0.2,1.4-2.1,2.4-2.8,3.9c-0.4,0.9-0.5,2.6,0.1,3.4c0.6,0.7,2.1,0.9,3.3,1
			c0.7,0.1,1.5-0.5,2.3-0.7c6.2-2.1,8.5-1,10.7,5.2C-140.6,971.7-140.3,972.8-139.8,974z M-264.7,1010.1
			c6.2,35.7,43.5,53.7,73.4,40.4c-3.8-6.2-7.8-12.3-11.2-18.6c-1.9-3.6-4.1-5.1-8.3-4.8c-11.2,0.7-19.1-4.7-24.4-14.3
			c-0.6-1.1-1.9-2.6-2.9-2.6C-246.9,1010.1-255.6,1010.1-264.7,1010.1z M-193.2,983.8c8.4,10.8,9.3,21.4,2.4,32.5
			c-0.6,0.9-1.2,2.6-0.7,3.3c4.5,7.6,9.1,15,13.7,22.6c26.5-21.4,25.4-63.2-2-82.8C-184.2,967.5-188.6,975.5-193.2,983.8z
			 M-193.6,951.5c-38.1-12.8-69.5,15.8-70.6,42.7c8.5,0,17.1,0.1,25.6-0.1c1,0,2.3-1.5,2.9-2.6c5.2-10.4,13.3-15.9,25.1-15.5
			c1.4,0.1,3.6-0.4,4.2-1.4C-202.1,967.2-198,959.5-193.6,951.5z M-118.7,945.2c-4.7,16.6-2,31.5,7.7,44.9
			c9.5,13.1,22.4,20.3,39.4,21.4c-0.9-8.7-1.6-16.7-2.6-24.7c-0.2-1.2-1.5-2.7-2.6-3.2c-10.8-4.5-16.6-12.3-17.2-24.1
			c-0.1-1.5-1.5-3.5-2.8-4.1C-103.7,951.9-110.8,948.8-118.7,945.2z M-111.8,931.3c7.7,3.5,15,7,22.4,10.1c1.1,0.5,3.2,0.2,4.2-0.6
			c9-7.3,18.6-7.9,28.9-2.9c1.2,0.6,3.1,1.2,4,0.7c7-4.7,13.9-9.7,20.9-14.7C-53.6,899.2-95.7,904-111.8,931.3z M-55.9,1010
			c38.5-9.9,46.9-53.2,33-73.1c-6.6,4.6-13.3,9.1-19.7,13.9c-1,0.7-1.7,2.9-1.5,4.1c2.2,11.2-2.2,19.6-11.1,25.8
			c-2.5,1.8-3.4,3.5-3.1,6.3C-57.5,994.6-56.7,1002.1-55.9,1010z M-212.1,1011.3c5.6,0,10.1-4.3,10.2-9.6c0.1-5.2-4.6-9.6-10.1-9.6
			c-5.4,0-10.1,4.4-10.1,9.5C-222.2,1006.8-217.6,1011.2-212.1,1011.3z M-59.4,959.9c0-5.5-3.7-9.5-9.2-9.7c-5.3-0.2-10,4.4-9.9,9.7
			c0.1,5.2,4.3,9.4,9.7,9.4C-63.3,969.3-59.4,965.4-59.4,959.9z M-142.2,975.4c-2.7,3.4-4.7,5.9-6.6,8.4c2.9,0.8,5.7,1.7,9,2.6
			C-140.6,982.6-141.2,980-142.2,975.4z"/>
		<path class="st5" d="M-142.2,975.4c1,4.5,1.5,7.1,2.4,11.1c-3.3-1-6.1-1.8-9-2.6C-146.8,981.4-144.9,978.9-142.2,975.4z"/>
	</g>
</g>
<g id="Layer_15">
	<g>
		<path class="st6" d="M169.3,481.6c-0.6,4.2-0.9,8.5-1.8,12.6c-6.4,31.8-25.8,52.7-54.9,65.4c-12.8,5.6-26.4,7.9-40.3,7.9
			c-67.4,0.1-134.9,0.1-202.3,0c-21.8,0-41.8-5.8-59.7-18.5c-49.2-34.9-49.2-102.6,0.3-137c6.3-4.4,9.6-9.1,11.7-16.5
			c12.5-43.7,58.8-68.3,102.3-55c6.4,2,5.1,2.5,9.6-2.8c20-23.6,45.3-37.3,76.2-40.5c1.3-0.1,2.6-0.6,3.9-0.9c4.7,0,9.3,0,14,0
			c3.2,0.5,6.5,1,9.7,1.5c55.3,8.4,95.8,54.7,96.7,110.9c0.1,3.8,1.1,6.3,4.1,8.9c15.5,13.1,25.4,29.7,29,49.8c0.7,4,1.1,8,1.7,12.1
			C169.3,480.1,169.3,480.9,169.3,481.6z M36.5,551.9C36.5,551.9,36.5,551.8,36.5,551.9c10.9-0.1,21.8,0.1,32.6-0.1
			c17.4-0.4,33.8-5,48.6-14.2c6-3.7,11.9-8.2,16.7-13.4c8.8-9.6,14.1-21.4,16.8-34.1c0.9-3.9,1.6-8.1,1.1-12.1
			c-1.9-15.6-8.2-29.5-18.3-41.5c-3-3.5-6.5-6.6-10-9.7c-3-2.6-4.4-5.6-4.5-9.6c-0.2-5.2-0.7-10.5-1.6-15.6
			c-6.2-36.9-23.9-65.3-59.6-80.2c-15.8-6.6-32-11.1-49.3-7.5c-24.6,5.1-46.3,15.3-62.5,35.4c-1.9,2.4-4.3,4.5-6.5,6.6
			c-0.9,0.9-2.3,1.9-3.4,1.9c-6.3-0.1-12.7,0.6-19-1.3c-6-1.9-12.7-3.9-18.8-3.1c-25.1,3-45.6,13.7-56.6,38.1
			c-2,4.4-3.3,9.1-5.2,13.6c-3.4,7.8-6.8,15.4-15,20c-15.3,8.5-23.5,22.6-29.2,38.6c-4.1,11.2-4,22.3-0.1,33.6
			c6.3,18.6,17.2,33.2,35,42.4c16,8.3,32.9,12.3,51,12.3c40.9-0.1,81.9,0,122.8,0C13.2,551.9,24.8,551.9,36.5,551.9z"/>
		<path class="st6" d="M-66.2,392.7c-2.1,0-4.3,0-6.4,0c-5.4,0.1-6.4,0.3-3-5.7c6.5-11.8,20.7-17.2,33.6-13
			c13.1,4.3,21.6,17.3,19.1,30.9c-1,5.2,0.6,8.1,3.9,11.5c21.7,22,43.2,44.1,64.7,66.2c1.2,1.3,2.5,2.5,3.6,3.8
			c3.6,4.5,3.4,10.4-0.3,14.3c-4,4.1-10,4.3-14.7,0.5c-1.5-1.2-2.8-2.7-4.2-4c-22.4-21.8-44.8-43.6-67-65.6
			c-2.6-2.6-4.8-3.4-8.6-2.7c-13,2.6-25.8-4.1-30.9-15.4c-1.5-3.2-1.3-3.6,2.3-3.7c5.4-0.1,10.9,0.1,16.3-0.1c5.2-0.1,5.9-1,6.1-6.2
			c0.3-10.8,0.3-10.8-10.2-10.8C-63.5,392.7-64.9,392.7-66.2,392.7z M41.2,489.1c-2.3,0.2-4.2,2.4-4.1,4.7c0.2,2.4,2.3,4.3,4.6,4.1
			c2.4-0.2,4.2-2.3,4-4.7C45.7,490.9,43.5,489,41.2,489.1z"/>
		<path class="st6" d="M-51.1,460.4c1.6,0.4,4.9,0.9,7.9,2c2.2,0.9,3.6,0.5,5.1-1.1c2.7-2.8,5.5-5.5,8.2-8.3c1.8-1.9,3.3-3.9,6-0.8
			c2.5,2.8,2.7,2.7-0.5,5.9c-2.9,2.9-5.7,5.8-8.7,8.6c-1.4,1.4-1.7,2.5-1,4.6c4.1,11.5,2,21.5-7.1,30.2
			c-11.8,11.3-23.3,22.8-34.5,34.6c-6.8,7.1-14.1,7.3-21.7,3.6c-8.5-4.1-14.1-10.8-15.9-20.2c-1-5.1,0.1-9.7,3.9-13.4
			c13.2-13.2,26.3-26.4,39.5-39.5C-65.2,462-59.2,460.7-51.1,460.4z M-101.2,514.9c0.6-0.4,1.7-0.9,2.5-1.7c2.8-2.7,5.5-5.5,8.3-8.2
			c8.9-8.9,17.8-17.8,26.7-26.8c1.6-1.6,3.1-3.3,1.2-5.5c-2.2-2.5-4.1-0.9-5.9,0.9c-0.3,0.3-0.6,0.5-0.8,0.8c-11,11-22,22-32.9,33
			c-0.9,1-2,2-2.5,3.1C-105.6,512.7-103.9,515.1-101.2,514.9z"/>
		<path class="st6" d="M2,431.3c-1.1-1.7-2.4-3.2-3.2-4.9c-0.3-0.7,0.2-2.2,0.9-2.8c6-6.1,11.9-12.2,18.1-18.1
			c5.3-5.1,10.2-10.5,13.8-17.1c3-5.5,8.9-7.2,13.8-10.2c0.7-0.4,3,1.1,4.1,2.2c0.7,0.7,1.2,2.7,0.8,3.4
			c-3.5,5.5-6.1,11.5-12.4,14.9c-4.3,2.3-8.2,5.8-11.8,9.3c-6.9,6.5-13.5,13.4-20.2,20.1C4.9,428.8,4,429.5,2,431.3z"/>
	</g>
</g>
</svg>
