<?xml version="1.0" encoding="utf-8"?>
<!-- Generator: Adobe Illustrator 19.0.0, SVG Export Plug-In . SVG Version: 6.00 Build 0)  -->
<svg version="1.1" id="Layer_1" xmlns="http://www.w3.org/2000/svg" xmlns:xlink="http://www.w3.org/1999/xlink" x="0px" y="0px"
	 viewBox="-231 235.9 400.5 395.1" style="enable-background:new -231 235.9 400.5 395.1;" xml:space="preserve">
<style type="text/css">
	.st0{fill:none;stroke:#FFFFFF;stroke-width:5;stroke-miterlimit:10;}
	.st1{display:none;}
	.st2{display:inline;}
	.st3{fill:#FFFFFF;stroke:#FFFFFF;stroke-miterlimit:10;}
</style>
<g id="CIRCLE">
	<ellipse class="st0" cx="-32.2" cy="433.7" rx="197.8" ry="195"/>
</g>
<g id="ADVISE" class="st1">
	<g id="_x37_aubkQ.tif" class="st2">
		<g id="XMLID_1_">
			<path id="XMLID_42_" d="M-298,1127c6,0,11.6,0,17.2,0c1.6,0,2.5,0.3,3.3,1.9c8.2,17.2,16.6,34.4,24.9,51.6c0.3,0.5,0.5,1.1,0.8,2
				c-78.4,0-156.6,0-235.2,0c0.4-0.9,0.8-1.7,1.2-2.6c9.1-16.9,18.2-33.8,27.2-50.7c0.9-1.7,1.9-2.3,3.8-2.3c6.9,0.1,13.8,0,21,0
				c0-7,0.2-13.7-0.1-20.3c-0.3-5.7,2.4-9.2,7.3-11.4c2.1-0.9,4.3-1.7,6.5-2.5c2-0.7,3.2-1.9,2.7-4.1c-1-4.1-1.9-8.3-3.3-12.3
				c-1.8-5.1-2.5-10.1-0.9-15.2c2.6-8.4,10.6-13.1,19.3-11.5c8.5,1.6,14.4,9.5,13.5,18.7c-0.4,3.6-1.8,7-2.7,10.6
				c-0.7,2.3-1.6,4.6-2.1,7c-0.8,3.8-0.1,4.8,3.5,6.3c1.1,0.5,2.3,0.8,3.8,1.4c0.3-3.5,0.6-6.7,0.9-9.9c0.3-3.2,0.6-6.5,0.9-9.7
				c0.5-7,2.6-13.3,8-18.2c1.5-1.3,2.6-3,4.1-4.8c-0.8-0.4-1.4-0.7-2-1c-10.6-4.5-16.7-16.6-14-27.8c3.4-13.9,19.2-20.3,31.1-12.3
				c8,5.4,12.7,12.6,11.3,22.9c-0.8,5.9-0.5,6,5.4,5.8c4-0.2,7.9-0.7,11.9-0.4c7,0.6,12.2,4.7,16.5,10c7.1,8.8,10.6,19.1,12.4,30.1
				C-297.1,1094.3-295.9,1110.3-298,1127z M-360.8,1126.8c19,0,37.8,0,56.7,0c2.3-17,0.9-33.6-2.1-50.2c-1.7-9.3-5-18-11.2-25.3
				c-4.5-5.3-9.9-8.1-17.2-7.1c-3.4,0.5-6.9,0.5-10.3,0.4c-4.4-0.2-6.7-2.5-7.1-6.8c-0.2-2,0-4.1,0.1-6.1
				c0.6-8.4-4.5-16.1-12.6-18.6c-2-0.6-4.3-0.8-6.3-0.4c-8.9,1.7-13.9,9.9-11.8,18.8c1.6,7,5.6,11.7,12.6,13.9
				c5.7,1.7,6.3,4.1,2.6,8.8c-2.2,2.8-4.9,5.3-6.8,8.2c-1.6,2.4-3.3,5.3-3.6,8.1c-2.1,19.6-3.8,39.2-5.7,58.8
				c-0.6,5.8-1.2,11.5-5.2,16.2c-0.6,0.7-0.9,1.7-1.4,2.6c1.3,0,2.3-0.3,3-1c1.1-1.2,2.1-2.5,3-3.8c1-1.4,2-2.1,3.8-1.2
				c2.1,1,3.6,0.1,4.2-2.1c0.4-1.4,0.5-2.8,0.7-4.2c0.6-5.4,0.8-10.9,1.7-16.2c1.3-7.8,3.2-15.5,4.8-23.5
				C-360.6,1105.2-362.8,1116.5-360.8,1126.8z M-389.3,1126.8c0.2-0.7,0.4-1.3,0.4-1.9c0.5-5.6,1-11.1,1.4-16.7
				c0.2-2.3,1.2-5.1,0.2-6.8c-0.9-1.6-3.9-2.1-6-3c-5.8-2.6-8-6.5-6.8-13c0.7-3.5,2-6.8,3-10.2c0.6-2.1,1.5-4.2,1.8-6.4
				c1-6.5-3.3-12.4-9.4-13c-6.4-0.6-11.3,4-11.2,11.1c0,2.8,1,5.5,1.7,8.3c0.9,3.4,2.3,6.7,3,10.2c1.3,6.7-1.1,10.7-7.3,13.3
				c-0.8,0.3-1.7,0.6-2.6,0.9c-6.2,2.2-6.6,2.8-6.6,9.4c0,6,0,11.9,0,17.9C-414.6,1126.8-402,1126.8-389.3,1126.8z"/>
		</g>
	</g>
</g>
<g id="Layer_2">
	<g>
		<path class="st3" d="M-37.7,422.7L24,393l1.7-3.8l-65.9,31.7l-47.9-34.2l-26.6,12.8l47.9,34.1l-98.3,47.3l2.4,1.8l98.4-47.3
			l119.8,85.4l26.6-12.7L-37.7,422.7z M-88.5,402.1c-2,1-5.6,0.4-8.1-1.3c-2.4-1.7-2.7-3.9-0.6-4.9c2-1,5.6-0.4,8,1.3
			C-86.7,399-86.4,401.2-88.5,402.1z"/>
		<path class="st3" d="M-118.5,401.4l37.4,26.7l-74.7,35.9c-10.4-7.4-11.6-16.8-2.8-21l33.5-16.1c3.2-1.5,2.7-7,2.4-11.8
			C-125.9,409.6-124.6,404.3-118.5,401.4z"/>
		<path class="st3" d="M28.2,375.5l-74.7,35.9l-37.4-26.7c6.1-2.9,15.3-2.6,23.8,0.3c8,1.1,17,2.5,20.2,0.9l33.5-16.1
			C2.3,365.6,17.8,368.1,28.2,375.5z"/>
		<polygon class="st3" points="74,369 49.8,380.6 51.5,376.8 71.4,367.2 		"/>
		<path class="st3" d="M62.6,346.9l-36.2,81.2c-1.4,3.1-4.7,4.8-7.9,4.2l-6,13.4c-0.2,0.5-1.1,0.5-1.9,0.1c-0.7-0.3-1.2-0.9-1.2-1.3
			c0-0.1,0-0.1,0.1-0.2l6-13.4c-1.1-0.8-1.9-2-2.4-3.1c-0.7-1.7-0.7-3.7,0.1-5.5L49.4,341c0.6-1.4,2.2-2,3.6-1.4l8.2,3.7
			C62.6,343.9,63.2,345.5,62.6,346.9z"/>
		<polygon class="st3" points="77.2,494.9 12.9,448.9 15.4,447.4 79.9,493.5 		"/>
	</g>
</g>
<g id="Layer_4" class="st1">
	<path class="st2" d="M-250.3,1111.1h-12.2v-86.7h0.9c3.2,0,5.8-2.6,5.8-5.8s-2.6-5.8-5.8-5.8h-5.8L-415,979.5l-0.6-6.4l0,0
		c0,0,0,0,0-0.3c-0.3-2.9-2.6-5.2-5.8-5.2c-3.2,0-5.8,2.6-5.8,5.8l0,0l-0.6,7.5l-56.2,31.9h-5.2c-3.2,0-5.8,2.6-5.8,5.8
		s2.6,5.8,5.8,5.8h6.7l0,0l0,0h51l-14.5,165.9h-4.6c-3.2,0-5.8,2.6-5.8,5.8c0,3.2,2.6,5.8,5.8,5.8h58.9c3.2,0,5.8-2.6,5.8-5.8
		c0-3.2-2.6-5.8-5.8-5.8h-4.6l-14.5-165.8H-274v86.7h-12.2c-6.1,0-11.3,4.9-11.3,11.3v21.5c0,6.1,4.9,11.3,11.3,11.3h36.2
		c6.1,0,11.3-4.9,11.3-11.3v-21.5C-239,1116.3-244.2,1111.1-250.3,1111.1z M-414.7,1113.7l0.6,5.2l-2.9-2.9L-414.7,1113.7z
		 M-421.4,1139.2l-8.1-8.1l0.3-3.5l7.8-7.8l7.8,7.8l0.3,3.5L-421.4,1139.2z M-412.7,1139l0.9,10.1l-5.5-5.5L-412.7,1139z
		 M-425.4,1143.3l-5.5,5.5l0.9-10.1L-425.4,1143.3z M-421.4,1112l-5.8-5.8l0.3-4.1l5.5-5.5l5.5,5.5l0.3,4.1L-421.4,1112z
		 M-416.7,1093.1l-0.6-0.6l0.6-0.6V1093.1z M-421.4,1048.2l0.9,0.9l0.3,3.8l-1.2,1.2l-1.2-1.2l0.3-3.8L-421.4,1048.2z
		 M-421.4,1040.1L-421.4,1040.1L-421.4,1040.1L-421.4,1040.1L-421.4,1040.1z M-421.4,1062.1l2,2l0.3,2.6l-2.3,2.3l-2.3-2l0.3-2.6
		L-421.4,1062.1z M-421.4,1077.5l3.5,3.5l0.3,3.5l-4.1,4.1l-4.1-4.1l0.3-3.5L-421.4,1077.5z M-426,1093.1v-1.2l0.6,0.6L-426,1093.1z
		 M-427.7,1113.7l2.3,2.3l-2.9,2.9L-427.7,1113.7z M-460.8,1012.8l31.6-18l-1.4,18H-460.8z M-432.7,1169.7l7.2,7.2l-8.7,8.7
		L-432.7,1169.7z M-430.6,1190.3l9.3-9.3l9.3,9.3H-430.6z M-408.6,1185.6l-8.7-8.7l7.2-7.2L-408.6,1185.6z M-410.9,1157.8l0.3,4.1
		l-10.7,10.7l-10.7-10.7l0.3-4.1l10.4-10.4L-410.9,1157.8z M-412.1,1012.8l-1.7-21.5l93.9,21.5H-412.1z M-250.6,1143.6h-35.7V1123
		h35.7C-250.6,1123-250.6,1143.6-250.6,1143.6z"/>
</g>
</svg>
