<?xml version="1.0" encoding="utf-8"?>
<!-- Generator: Adobe Illustrator 19.0.0, SVG Export Plug-In . SVG Version: 6.00 Build 0)  -->
<svg version="1.1" id="Layer_1" xmlns="http://www.w3.org/2000/svg" xmlns:xlink="http://www.w3.org/1999/xlink" x="0px" y="0px"
	 viewBox="-231 235.9 400.5 395.1" style="enable-background:new -231 235.9 400.5 395.1;" xml:space="preserve">
<style type="text/css">
	.st0{display:none;}
	.st1{display:inline;fill:none;stroke:#000000;stroke-width:5;stroke-miterlimit:10;}
	.st2{display:inline;}
	.st3{display:inline;fill:#010101;}
	.st4{fill:#88DC00;}
</style>
<g id="CIRCLE" class="st0">
	<ellipse class="st1" cx="-139" cy="853.8" rx="197.8" ry="195"/>
</g>
<g id="ADVISE" class="st0">
	<g id="_x37_aubkQ.tif" class="st2">
		<g id="XMLID_1_">
			<path id="XMLID_42_" d="M-67,891.1c6,0,11.6,0,17.2,0c1.6,0,2.5,0.3,3.3,1.9c8.2,17.2,16.6,34.4,24.9,51.6c0.3,0.5,0.5,1.1,0.8,2
				c-78.4,0-156.6,0-235.2,0c0.4-0.9,0.8-1.7,1.2-2.6c9.1-16.9,18.2-33.8,27.2-50.7c0.9-1.7,1.9-2.3,3.8-2.3c6.9,0.1,13.8,0,21,0
				c0-7,0.2-13.7-0.1-20.3c-0.3-5.7,2.4-9.2,7.3-11.4c2.1-0.9,4.3-1.7,6.5-2.5c2-0.7,3.2-1.9,2.7-4.1c-1-4.1-1.9-8.3-3.3-12.3
				c-1.8-5.1-2.5-10.1-0.9-15.2c2.6-8.4,10.6-13.1,19.3-11.5c8.5,1.6,14.4,9.5,13.5,18.7c-0.4,3.6-1.8,7-2.7,10.6
				c-0.7,2.3-1.6,4.6-2.1,7c-0.8,3.8-0.1,4.8,3.5,6.3c1.1,0.5,2.3,0.8,3.8,1.4c0.3-3.5,0.6-6.7,0.9-9.9s0.6-6.5,0.9-9.7
				c0.5-7,2.6-13.3,8-18.2c1.5-1.3,2.6-3,4.1-4.8c-0.8-0.4-1.4-0.7-2-1c-10.6-4.5-16.7-16.6-14-27.8c3.4-13.9,19.2-20.3,31.1-12.3
				c8,5.4,12.7,12.6,11.3,22.9c-0.8,5.9-0.5,6,5.4,5.8c4-0.2,7.9-0.7,11.9-0.4c7,0.6,12.2,4.7,16.5,10c7.1,8.8,10.6,19.1,12.4,30.1
				C-66.1,858.4-64.9,874.4-67,891.1z M-129.8,890.9c19,0,37.8,0,56.7,0c2.3-17,0.9-33.6-2.1-50.2c-1.7-9.3-5-18-11.2-25.3
				c-4.5-5.3-9.9-8.1-17.2-7.1c-3.4,0.5-6.9,0.5-10.3,0.4c-4.4-0.2-6.7-2.5-7.1-6.8c-0.2-2,0-4.1,0.1-6.1
				c0.6-8.4-4.5-16.1-12.6-18.6c-2-0.6-4.3-0.8-6.3-0.4c-8.9,1.7-13.9,9.9-11.8,18.8c1.6,7,5.6,11.7,12.6,13.9
				c5.7,1.7,6.3,4.1,2.6,8.8c-2.2,2.8-4.9,5.3-6.8,8.2c-1.6,2.4-3.3,5.3-3.6,8.1c-2.1,19.6-3.8,39.2-5.7,58.8
				c-0.6,5.8-1.2,11.5-5.2,16.2c-0.6,0.7-0.9,1.7-1.4,2.6c1.3,0,2.3-0.3,3-1c1.1-1.2,2.1-2.5,3-3.8c1-1.4,2-2.1,3.8-1.2
				c2.1,1,3.6,0.1,4.2-2.1c0.4-1.4,0.5-2.8,0.7-4.2c0.6-5.4,0.8-10.9,1.7-16.2c1.3-7.8,3.2-15.5,4.8-23.5
				C-129.6,869.3-131.8,880.6-129.8,890.9z M-158.3,890.9c0.2-0.7,0.4-1.3,0.4-1.9c0.5-5.6,1-11.1,1.4-16.7c0.2-2.3,1.2-5.1,0.2-6.8
				c-0.9-1.6-3.9-2.1-6-3c-5.8-2.6-8-6.5-6.8-13c0.7-3.5,2-6.8,3-10.2c0.6-2.1,1.5-4.2,1.8-6.4c1-6.5-3.3-12.4-9.4-13
				c-6.4-0.6-11.3,4-11.2,11.1c0,2.8,1,5.5,1.7,8.3c0.9,3.4,2.3,6.7,3,10.2c1.3,6.7-1.1,10.7-7.3,13.3c-0.8,0.3-1.7,0.6-2.6,0.9
				c-6.2,2.2-6.6,2.8-6.6,9.4c0,6,0,11.9,0,17.9C-183.6,890.9-171,890.9-158.3,890.9z"/>
		</g>
	</g>
</g>
<g id="Layer_2" class="st0">
	<g class="st2">
		<path d="M-144.5,842.8l61.7-29.7l1.7-3.8L-147,841l-47.9-34.2l-26.6,12.8l47.9,34.1l-98.3,47.3l2.4,1.8l98.4-47.3l119.8,85.4
			l26.6-12.7L-144.5,842.8z M-195.3,822.2c-2,1-5.6,0.4-8.1-1.3c-2.4-1.7-2.7-3.9-0.6-4.9c2-1,5.6-0.4,8,1.3
			C-193.5,819.1-193.2,821.3-195.3,822.2z"/>
		<path d="M-225.3,821.5l37.4,26.7l-74.7,35.9c-10.4-7.4-11.6-16.8-2.8-21l33.5-16.1c3.2-1.5,2.7-7,2.4-11.8
			C-232.7,829.7-231.4,824.4-225.3,821.5z"/>
		<path d="M-78.6,795.6l-74.7,35.9l-37.4-26.7c6.1-2.9,15.3-2.6,23.8,0.3c8,1.1,17,2.5,20.2,0.9l33.5-16.1
			C-104.5,785.7-89,788.2-78.6,795.6z"/>
		<polygon points="-32.8,789.1 -57,800.7 -55.3,796.9 -35.4,787.3 		"/>
		<path d="M-44.2,767l-36.2,81.2c-1.4,3.1-4.7,4.8-7.9,4.2l-6,13.4c-0.2,0.5-1.1,0.5-1.9,0.1c-0.7-0.3-1.2-0.9-1.2-1.3
			c0-0.1,0-0.1,0.1-0.2l6-13.4c-1.1-0.8-1.9-2-2.4-3.1c-0.7-1.7-0.7-3.7,0.1-5.5l36.2-81.3c0.6-1.4,2.2-2,3.6-1.4l8.2,3.7
			C-44.2,764-43.6,765.6-44.2,767z"/>
		<polygon points="-29.6,915 -93.9,869 -91.4,867.5 -26.9,913.6 		"/>
	</g>
</g>
<g id="Layer_5" class="st0">
	<path class="st2" d="M-127.8,899l-6.2-21.6c1.8-1.6,3.5-3.3,5.1-5.1l21.6,6.2c2.3-3.3,4.2-6.8,6-10.5l-16-15.5
		c0.8-2.3,1.5-4.6,1.9-7l21.7-5.4c0.2-2,0.3-4,0.3-6.1s-0.2-4-0.3-6l-21.7-5.4c-0.5-2.4-1.2-4.7-1.9-7l16-15.5
		c-1.8-3.6-3.7-7.2-6-10.5l-21.6,6.2c-1.6-1.8-3.3-3.5-5.1-5.1l6.2-21.6c-3.3-2.3-6.8-4.2-10.5-6l-15.5,16.1c-2.3-0.8-4.6-1.4-7-1.9
		l-5.4-21.7c-2-0.2-4-0.3-6.1-0.3s-4,0.2-6,0.3l-5.4,21.7c-2.4,0.5-4.7,1.1-7,1.9l-15.5-16.1c-3.6,1.8-7.1,3.7-10.5,6l6.2,21.6
		c-1.8,1.6-3.5,3.3-5.1,5.1l-21.6-6.2c-2.3,3.3-4.2,6.8-6,10.5l16.1,15.5c-0.8,2.3-1.4,4.6-1.9,7l-21.7,5.4c-0.2,2-0.3,4-0.3,6
		s0.2,4,0.3,6.1l21.7,5.4c0.5,2.4,1.2,4.7,1.9,7l-16.1,15.5c1.8,3.6,3.7,7.2,6,10.5l21.6-6.1c1.6,1.8,3.3,3.5,5.1,5.1l-6.2,21.6
		c3.3,2.3,6.8,4.2,10.5,6l15.6-16.1c2.3,0.8,4.6,1.4,7,1.9l5.4,21.7c2,0.2,4,0.3,6.1,0.3c2.1,0,4.1-0.2,6.1-0.3l5.4-21.7
		c2.4-0.5,4.7-1.2,7-1.9l15.5,16.1C-134.7,903.3-131.2,901.3-127.8,899z M-172.4,861c-14.9,0-27-12.1-27-27s12.1-27,27-27
		c14.9,0,27,12.1,27,27S-157.5,861-172.4,861z M-49.5,917.3c0.2-4.3-0.5-8.8-1.8-13.1l9.9-14.1c-1.5-2.8-3.2-5.4-5.1-7.8l-16.8,3.5
		c-3.4-2.8-7.3-5.1-11.4-6.8l-4.8-16.5c-3.1-0.5-6.2-0.8-9.3-0.8l-7.7,15.4c-2.2,0.5-4.5,1-6.6,1.8s-4,1.8-5.8,2.8l-15.9-6.5
		c-2.4,2.1-4.5,4.3-6.4,6.8l7.2,15.6c-2.1,3.9-3.5,8.1-4.1,12.6l-15,8.4c0.2,3.1,0.6,6.1,1.3,9.3l16.7,4.1c1.8,4.1,4.3,7.9,7.3,11.1
		l-2.8,17c2.5,1.8,5.2,3.4,8.1,4.8l13.6-10.5c4.3,1.2,8.8,1.5,13.2,1.2l11.5,12.7c1.6-0.5,3.1-0.9,4.7-1.5c1.5-0.5,2.8-1.2,4.1-1.8
		l0.2-17.2c3.6-2.7,6.8-5.9,9.1-9.5l17.1-1.1c1.2-2.8,2.2-5.8,2.9-8.8L-49.5,917.3z M-82.5,933.3c-9.5,3.6-20.2-1.2-23.8-10.7
		c-3.6-9.5,1.1-20.2,10.7-23.8c9.5-3.6,20.2,1.2,23.8,10.7C-68.2,918.9-73,929.6-82.5,933.3z"/>
</g>
<g id="Layer_4" class="st0">
	<path class="st2" d="M-19.3,875.2h-12.2v-86.7h0.9c3.2,0,5.8-2.6,5.8-5.8s-2.6-5.8-5.8-5.8h-5.8L-184,743.6l-0.6-6.4l0,0
		c0,0,0,0,0-0.3c-0.3-2.9-2.6-5.2-5.8-5.2c-3.2,0-5.8,2.6-5.8,5.8l0,0l-0.6,7.5l-56.2,31.9h-5.2c-3.2,0-5.8,2.6-5.8,5.8
		s2.6,5.8,5.8,5.8h6.7l0,0l0,0h51L-215,954.4h-4.6c-3.2,0-5.8,2.6-5.8,5.8s2.6,5.8,5.8,5.8h58.9c3.2,0,5.8-2.6,5.8-5.8
		s-2.6-5.8-5.8-5.8h-4.6l-14.5-165.8H-43v86.7h-12.2c-6.1,0-11.3,4.9-11.3,11.3v21.5c0,6.1,4.9,11.3,11.3,11.3H-19
		c6.1,0,11.3-4.9,11.3-11.3v-21.5C-8,880.4-13.2,875.2-19.3,875.2z M-183.7,877.8l0.6,5.2l-2.9-2.9L-183.7,877.8z M-190.4,903.3
		l-8.1-8.1l0.3-3.5l7.8-7.8l7.8,7.8l0.3,3.5L-190.4,903.3z M-181.7,903.1l0.9,10.1l-5.5-5.5L-181.7,903.1z M-194.4,907.4l-5.5,5.5
		l0.9-10.1L-194.4,907.4z M-190.4,876.1l-5.8-5.8l0.3-4.1l5.5-5.5l5.5,5.5l0.3,4.1L-190.4,876.1z M-185.7,857.2l-0.6-0.6l0.6-0.6
		V857.2z M-190.4,812.3l0.9,0.9l0.3,3.8l-1.2,1.2l-1.2-1.2l0.3-3.8L-190.4,812.3z M-190.4,804.2L-190.4,804.2L-190.4,804.2
		L-190.4,804.2L-190.4,804.2z M-190.4,826.2l2,2l0.3,2.6l-2.3,2.3l-2.3-2l0.3-2.6L-190.4,826.2z M-190.4,841.6l3.5,3.5l0.3,3.5
		l-4.1,4.1l-4.1-4.1l0.3-3.5L-190.4,841.6z M-195,857.2V856l0.6,0.6L-195,857.2z M-196.7,877.8l2.3,2.3l-2.9,2.9L-196.7,877.8z
		 M-229.8,776.9l31.6-18l-1.4,18H-229.8z M-201.7,933.8l7.2,7.2l-8.7,8.7L-201.7,933.8z M-199.6,954.4l9.3-9.3l9.3,9.3H-199.6z
		 M-177.6,949.7l-8.7-8.7l7.2-7.2L-177.6,949.7z M-179.9,921.9l0.3,4.1l-10.7,10.7L-201,926l0.3-4.1l10.4-10.4L-179.9,921.9z
		 M-181.1,776.9l-1.7-21.5l93.9,21.5H-181.1z M-19.6,907.7h-35.7v-20.6h35.7V907.7z"/>
</g>
<g id="Layer_6" class="st0">
	<path class="st2" d="M-60.6,894.8l-42.1-22.6c2.8-5.5,4.2-11.8,4.2-18.5c0-10.9-3.9-20.6-10.6-28.2l30-23.6
		c12.7,14.3,41.1,1.8,33.7-20.3c-8.3-25.4-46.7-12.9-38.4,12.5c0.5,1.6,1.2,3.2,2.1,4.6l-30.3,24c-7.6-7.2-18-11.8-29.3-11.8
		c-2.5,0-5.1,0.2-7.6,0.7l-6.9-30.5c3.5-1.6,6-5.1,6-9.9c0-15-22.6-15-22.6,0c0,8.1,6.7,11.8,12.7,11.1l6.9,30.3
		c-15.3,4.4-27,16.9-30.3,32.6l-23.3-8.1c0.5-1.8,0.7-3.7,0.7-6c0-26.1-39.1-26.1-39.1,0c0,22.2,28.4,25.4,36.7,9.7l24.3,8.3
		c-0.2,1.4-0.2,3-0.2,4.6c0,10.9,4.2,20.8,10.9,28.4l-28,12.7c-6.5-12.5-29.6-10.2-29.6,7.9c0,20.8,31.2,20.8,31.2,0
		c0-1.4-0.2-2.5-0.2-3.7l29.8-13.6c7.6,6.9,17.8,11.3,28.9,11.3c1.2,0,2.5,0,3.7-0.2l4.6,37.4c-3.5,0.5-6.7,2.3-9.7,6
		c-13.2,16.2,11.3,35.8,24.5,19.6c9-11.3,0-24.3-10.6-25.7l-4.6-37.9c12.2-2.3,22.6-9.7,28.9-19.9l42.1,22.4
		c-0.2,1.2-0.5,2.5-0.5,3.9c0,17.3,26.1,17.3,26.1,0C-36.8,888.4-54.2,885.8-60.6,894.8z"/>
</g>
<g id="Layer_7" class="st0">
	<g class="st2">
		<path d="M-339.1,1018.8c0-36.4,0-72.9,0-109.3c0.2-0.4,0.5-0.9,0.7-1.3c4.2-18.6,18.6-30.1,37.8-30.2c19-0.1,37.9,0,56.9,0
			c1.4,0,2.8,0,4.5,0c0-1.9,0-3.4,0-4.9c0-59.7,0-119.4,0-179.2c0-16.7,10.2-30.6,25.7-35.7c2.1-0.7,4.2-1.2,6.2-1.9
			c78.5,0,157,0,235.5,0c0.8,0.3,1.7,0.6,2.5,0.8c13.9,3.5,23.2,11.9,27.8,25.3c0.6,1.8,1.1,3.6,1.6,5.4c0,77.5,0,155,0,232.4
			c-0.2,0.3-0.5,0.6-0.6,1c-4.8,19.7-18.7,30.6-39,30.6c-60.1,0-120.2,0-180.4,0c-1.5,0-3,0-4.4,0c-0.1,0.9-0.2,1.1-0.2,1.4
			c0,20,0,40,0,60c-0.1,17.8-12.2,32.6-29.8,36.4c-0.7,0.2-1.4,0.5-2.1,0.8c-36.9,0-73.8,0-110.7,0c-0.8-0.3-1.6-0.6-2.5-0.8
			c-13.6-3.4-22.8-11.6-27.6-24.6C-337.9,1023-338.4,1020.9-339.1,1018.8z M-35.3,732.1c0.4,0.5,0.7,1,1.1,1.5
			c-1.3,0.9-2.8,1.6-3.8,2.6c-81,79.9-162,159.8-242.9,239.6c-1,1-2.1,1.9-3,3c-3.2,3.8-3.9,8.1-2.1,12.6c1.7,4.5,5.2,7,9.9,7.6
			c5.2,0.8,8.8-1.8,12.3-5.3c81.2-80.2,162.5-160.3,243.7-240.5c1-1,1.5-2.7,2.2-4c0.6,0.4,1.2,0.9,1.8,1.3c0,1.4,0,2.7,0,4.1
			c0,20.8,0,41.6,0,62.3c0,8,6,13.4,13.7,12.7c6.8-0.7,11.2-6,11.2-13.8c0-31.2,0-62.3,0-93.5c0-10.4-4.7-14.9-15.3-14.9
			c-17.5,0-35.1,0-52.6,0c-14.3,0-28.6,0-42.9,0c-6.6,0-11.3,3.2-13,8.4c-2.7,8.2,3.1,16,12.4,16.1c14.8,0.2,29.6,0,44.4,0
			C-50.6,732.1-43,732.1-35.3,732.1z"/>
	</g>
</g>
<g id="Layer_8" class="st0">
	<path class="st2" d="M-307.7,830.3h113.5c15.4,0.1,28.6,12.5,28.6,28.6c0,7.9-3.2,15-8.4,20.2c-0.4,0.4-0.9,0.9-1.4,1.3h-2
		c-10.1,0-18.9-7.4-20.9-17.2h4.1c3.8,0,5.7-4.7,3-7.3c-0.8-0.8-1.9-1.3-3-1.3h-10.1c-1.9,8.5,1.8,18,7.6,23.8
		c5,5,11.8,8.1,19.4,8.1h77.1c7.5,0,14.4-3.1,19.4-8.1c5.8-5.8,9.5-15.3,7.6-23.8h-10.1c-3.8,0-5.7,4.7-3,7.3c0.8,0.8,1.9,1.3,3,1.3
		h4.1c-2,9.8-10.8,17.2-20.9,17.2h-2c-0.5-0.4-0.9-0.8-1.4-1.3c-16.8-16.8-6.8-45.4,16.4-48.5l3.8-0.3H30.2
		c15.7,0,28.6,12.8,28.6,28.6c0,15.7-12.8,28.6-28.6,28.6h-80c4-7.1,6.5-15,7.2-23.2l72.6,0.1c3.1,0,5.6-2.5,5.6-5.6
		s-2.5-5.6-5.6-5.6l-72.6-0.1c-2.3,0-4.8,0.1-5.7,1.4h-0.4c2.7,30-21.4,56.2-51.5,56.2c-25.7,0-51.4,0-77.1,0
		c-14.2,0-27.2-5.8-36.5-15.2c-10.4-10.4-16.4-25.5-15-41h-0.4c-0.9-1.3-3.4-1.4-5.7-1.4l-72.6,0.1c-3.1,0-5.6,2.5-5.6,5.6
		s2.5,5.6,5.6,5.6l72.6-0.1c0.7,8.2,3.2,16.1,7.2,23.2h-80c-15.7,0-28.6-12.8-28.6-28.6C-336.2,843.1-323.4,830.3-307.7,830.3
		L-307.7,830.3z"/>
	<path class="st2" d="M0.1,941.4c1.7-2.9,0.7-6.6-2.2-8.2l-42.5-24.6c-3.8-2.2-7.8,0.7-8.2,2.2c-1.7,2.9-0.7,6.6,2.2,8.2l42.5,24.6
		C-5.4,945.2-1.3,944.3,0.1,941.4L0.1,941.4z"/>
	<path class="st2" d="M-58.6,1000.1c-3,1.5-6.5,0.8-8.2-2.2l-24.6-42.5c-2.2-3.8,0.7-7.8,2.2-8.2c2.9-1.7,6.6-0.7,8.2,2.2l24.6,42.5
		C-54.7,994.8-55.7,998.5-58.6,1000.1L-58.6,1000.1z"/>
	<path class="st2" d="M-138.8,1021.6c-3.3,0-6-2.7-6-6v-49.1c0-3.3,2.7-6,6-6s6,2.7,6,6v49.1
		C-132.8,1018.9-135.5,1021.6-138.8,1021.6L-138.8,1021.6z"/>
	<path class="st2" d="M-219,1000.1c-2.9-1.5-3.8-5.5-2.2-8.2l24.6-42.5c1.7-2.9,5.4-3.9,8.2-2.2c1.5,0.4,4.4,4.4,2.2,8.2l-24.6,42.5
		C-212.4,1000.8-216.1,1001.8-219,1000.1L-219,1000.1z"/>
	<path class="st2" d="M-277.7,941.4c1.7,2.9,5.4,3.9,8.2,2.2L-227,919c2.9-1.7,3.9-5.4,2.2-8.2c-0.4-1.5-4.4-4.4-8.2-2.2l-42.5,24.6
		C-278.5,935-279.2,938.4-277.7,941.4L-277.7,941.4z"/>
	<path class="st2" d="M-277.7,781.1c1.5-2.9,5.5-3.8,8.2-2.2l42.5,24.6c2.9,1.7,3.9,5.4,2.2,8.2c-0.4,1.5-4.4,4.4-8.2,2.2
		l-42.5-24.6C-278.3,787.6-279.3,783.9-277.7,781.1L-277.7,781.1z"/>
	<path class="st2" d="M-219,722.4c3-1.5,6.5-0.8,8.2,2.2l24.6,42.5c2.2,3.8-0.7,7.8-2.2,8.2c-2.9,1.7-6.6,0.7-8.2-2.2l-24.6-42.5
		C-222.8,727.7-221.8,724-219,722.4L-219,722.4z"/>
	<path class="st2" d="M0.1,781.1c1.5,3,0.8,6.5-2.2,8.2l-42.5,24.5c-3.8,2.2-7.8-0.7-8.2-2.2c-1.7-2.9-0.7-6.6,2.2-8.2l42.5-24.6
		C-5.2,777.2-1.5,778.2,0.1,781.1L0.1,781.1z"/>
	<path class="st2" d="M-58.6,722.4c2.9,1.5,3.8,5.5,2.2,8.2L-81,773.1c-1.7,2.9-5.4,3.9-8.2,2.2c-1.5-0.4-4.4-4.4-2.2-8.2l24.6-42.5
		C-65.2,721.7-61.5,720.7-58.6,722.4L-58.6,722.4z"/>
	<path class="st2" d="M-138.8,700.9c3.3,0,6,2.7,6,6V756c0,3.3-2.7,6-6,6s-6-2.7-6-6v-49.1C-144.8,703.6-142.1,700.9-138.8,700.9
		L-138.8,700.9z"/>
	<path class="st2" d="M-109.2,836c1.3-1.7,2.9-3.3,5.1-5c6-4.3,13.2-6.8,20.7-6.8h17.9c-9.4-7.9-20.8-12.5-33.7-12.5
		c-26.4,0-52.8,0-79.2,0c-12.9,0-24.2,4.6-33.7,12.5h17.9c7.5,0,14.7,2.5,20.7,6.8c2.3,1.6,3.9,3.3,5.1,5H-109.2z"/>
</g>
<g id="Layer_9" class="st0">
	<g class="st2">
		<path d="M-106.8,833.1c0-5.4-4.9-9.7-10.9-9.7h-36.5c-6.1,0-10.9,4.3-10.9,9.7v28.8h-13v62.5h84.3v-62.5h-13L-106.8,833.1
			L-106.8,833.1z M-130.8,895.8v12.5h-10.6v-12.7c-1.5-1.4-2.5-3.5-2.5-5.7c0-3.8,2.7-6.8,6.2-7.6h3.4c3.5,0.8,6.2,3.8,6.2,7.6
			C-128,892.3-129.1,894.4-130.8,895.8z M-121.2,862h-29.5v-24.1h29.5V862z"/>
		<path d="M25.3,832.5c0-1.4,0.1-2.8,0.1-4.1C25.4,765.2-25.8,714-89,714c-37.7,0-71.1,18.2-91.9,46.3c-9.3-3.6-19.4-5.7-30-5.7
			c-41.3,0-75.4,30.3-81.6,69.8c-28,15.4-46.8,43.2-46.8,75.1c0,48.4,43.3,87.7,96.7,87.7H-37c53.4,0,96.7-39.3,96.7-87.7
			C59.7,872.6,46.4,848.6,25.3,832.5z M-136,954.6c-44.5,0-80.6-36.1-80.6-80.6s36.1-80.6,80.6-80.6s80.6,36.1,80.6,80.6
			C-55.3,918.5-91.4,954.6-136,954.6z"/>
	</g>
</g>
<g id="Layer_10" class="st0">
	<path class="st3" d="M10,817.6c-8.3-8.7-18.6-14.6-29.7-17c-14-24.5-38-39.4-64.4-39.4c-12.6,0-24.8,3.5-35.8,10
		c-17-29.4-46.1-47.6-78.4-47.6c-47.7,0-87,39.6-92.7,91.6c-2.1,2-4,4.1-5.8,6.4c-11.5,6.5-19.8,18.3-22.9,32.1
		c-10.5,12.3-16.4,28.6-16.4,45.7c0,36.6,26.7,66.4,59.5,66.4c1.2,0,2.3-0.1,3.4-0.1c0.7,0.1,1.5,0.1,2.4,0.1H0c0.7,0,1.4,0,2.1-0.1
		c31.9-1.6,56.7-30.6,56.7-66.3c0-17.1-5.9-33.4-16.4-45.7C38.5,836.1,25.9,822,10,817.6z M0.5,932H0.2c-0.3,0-0.5,0-0.8,0.1h-269.7
		l-2.2-0.3l-1.6,0.2c-0.8,0.1-1.6,0.1-2.5,0.1c-16.2,0-29.3-14.7-29.3-32.7c0-9.4,3.7-18.3,10.1-24.6l4.4-4.3l0.6-6.5
		c0.6-5.8,4-10.8,8.9-13l3.8-1.7l2.5-3.6c2.1-3,4.5-5.5,7.2-7.4l6.6-4.7l0.3-8.7c1.5-37.9,29.2-67.5,63.1-67.5
		c26.1,0,49.2,17.6,58.8,44.9l8,22.7l16.2-16.4c8.6-8.7,19.7-13.5,31.1-13.5c17.7,0,33.6,11.1,41.5,28.9l4,8.9l8.9,0.4
		c8,0.4,15.4,4.3,20.8,11.2l3.9,4.9l5.9,0.7c6.6,0.8,11.9,6.7,12.6,14l0.6,6.5l4.4,4.3c6.4,6.2,10.1,15.2,10.1,24.6
		C28.7,917.1,16.3,931.4,0.5,932z"/>
</g>
<g id="Layer_11" class="st0">
	<g class="st2">
		<path d="M-71.2,720.2c10.1,15.8,32.4,19.7,50,8.8c17.5-11,24.1-32.9,14-48.6c-9.6-15.8-32.4-19.7-50-8.8S-80.8,704-71.2,720.2z"/>
		<path d="M-72,734.7c-23.7-3.1-59.6,43.8-63.1,57.8s-1.8,20.6,14,20.6s29.8,0,29.8,0s31.1,61.8,50,64.4
			c18.8,2.2,90.7-43.8,95.5-49.5c9.2-10.5-1.8-21.9-16.7-15.8c-7,3.1-60,24.1-60,24.1c-14.5,0-28.5-74.1-28.5-74.1
			S-48.4,737.7-72,734.7z"/>
		<path d="M-112.8,721.5c0,0-12.7-3.1-20.2-2.6c-7,0.4-78,3.1-85.9,7c-7.9,3.9-50,71-50,71s-1.3,7.9,3.9,9.6
			c5.3,1.8,17.1-0.9,24.5-7s35.9-38.1,44.7-40.8c8.8-3.1,35.1,4.4,35.1,4.4L-112.8,721.5z"/>
		<path d="M-113.7,855.6l-52.6,35.9c0,0,21,35.5,14,32.9c-14.9-5.3-53.9,7.9-53.9,7.9l-24.5,25.4c0,0,99,0,113.1-0.4
			c14.5-0.4,32.4-17.5,28.5-28.9C-93.1,917-113.7,855.6-113.7,855.6z"/>
		<path d="M-334.1,1028.3c2.6-3.9,7.4-24.1,38.1-72.3c0,0-17.5-1.8-14.5-14.5c3.1-12.3,21.9-8.3,31.6-8.8
			c15.8-35.9,25.9-49.1,30.7-55.2c12.7-15.8,42.5-17.1,57.8-10.5c15.3,6.1,11.4,25.9,5.7,32.9c-5.7,6.6-120.9,129.3-128.4,138
			c-7.4,8.3-18,7.9-21.9,3.1C-339.3,1035.7-334.1,1028.3-334.1,1028.3z"/>
	</g>
</g>
<g id="Layer_12">
	<g>
		<g>
			<path class="st4" d="M50,522.1c-6.2,0-11.2-5-11.2-11.2s5-11.2,11.2-11.2c52.4,0,94.9-42.6,94.9-94.9c0-52.4-42.6-95-94.9-95
				c-18.4,0-36.3,5.3-51.7,15.4c-4.6,3-10.6,2.2-14.3-1.8c-7.9-8.6-19.2-13.6-30.8-13.6c-21.6,0-40,16.9-41.7,38.4
				c-0.3,3.6-2.2,6.8-5.3,8.6c-3,1.9-6.8,2.2-10.1,0.8c-8.8-3.6-18.2-5.4-27.8-5.4c-40.6,0-73.7,33.1-73.7,73.7
				c0,40.4,32.8,73.4,73.2,73.7c6.2,0.1,11.1,5.1,11.1,11.3c0,6.2-5,11.1-11.2,11.1h-0.1c-52.6-0.4-95.4-43.5-95.4-96.1
				c0-53,43.1-96.1,96.1-96.1c8,0,15.9,1,23.5,2.9c8.2-26.3,32.9-45.3,61.4-45.3c14.8,0,29.2,5.2,40.6,14.4
				c17.2-9.5,36.6-14.4,56.4-14.4c64.7,0,117.3,52.6,117.3,117.3C167.3,469.5,114.7,522.1,50,522.1z"/>
		</g>
		<g>
			<path class="st4" d="M111.2,416c-6.2,0-11.2-5-11.2-11.2c0-29-23.6-52.5-52.5-52.5c-6.2,0-11.2-5-11.2-11.2s5-11.2,11.2-11.2
				c41.3,0,74.9,33.6,74.9,74.9C122.4,411,117.4,416,111.2,416z"/>
		</g>
	</g>
	<path class="st4" d="M5.5,514.9L-34,475.4c-0.3-0.3-0.7-0.7-1.1-0.9c-0.2-0.1-0.4-0.2-0.6-0.3c-0.2-0.1-0.5-0.3-0.7-0.4
		s-0.5-0.2-0.7-0.2c-0.2-0.1-0.4-0.2-0.6-0.2c-0.6-0.1-1.1-0.2-1.7-0.1c-2-0.1-4,0.6-5.5,2.2l-39.5,39.6c-2.9,2.9-2.9,7.6,0,10.5
		c1.5,1.4,3.4,2.2,5.3,2.2s3.8-0.7,5.3-2.2l27.3-27.3v113c0,4.1,3.3,7.5,7.5,7.5c4.1,0,7.5-3.3,7.5-7.5V498.7l26.8,26.8
		c1.5,1.5,3.4,2.2,5.3,2.2s3.8-0.7,5.3-2.2C8.4,522.6,8.4,517.9,5.5,514.9z"/>
</g>
</svg>
