<?xml version="1.0" encoding="utf-8"?>
<!-- Generator: Adobe Illustrator 19.0.0, SVG Export Plug-In . SVG Version: 6.00 Build 0)  -->
<svg version="1.1" id="Layer_1" xmlns="http://www.w3.org/2000/svg" xmlns:xlink="http://www.w3.org/1999/xlink" x="0px" y="0px"
	 viewBox="-231 235.9 400.5 395.1" style="enable-background:new -231 235.9 400.5 395.1;" xml:space="preserve">
<style type="text/css">
	.st0{fill:none;stroke:#FFFFFF;stroke-width:5;stroke-miterlimit:10;}
	.st1{fill:#FFFFFF;}
</style>
<g id="CIRCLE">
	<ellipse class="st0" cx="-28.3" cy="433.7" rx="197.8" ry="195"/>
</g>
<g id="ADVISE">
	<g id="_x37_aubkQ.tif">
		<g id="XMLID_1_">
			<path id="XMLID_42_" class="st1" d="M43.7,471c6,0,11.6,0,17.2,0c1.6,0,2.5,0.3,3.3,1.9c8.2,17.2,16.6,34.4,24.9,51.6
				c0.3,0.5,0.5,1.1,0.8,2c-78.4,0-156.6,0-235.2,0c0.4-0.9,0.8-1.7,1.2-2.6c9.1-16.9,18.2-33.8,27.2-50.7c0.9-1.7,1.9-2.3,3.8-2.3
				c6.9,0.1,13.8,0,21,0c0-7,0.2-13.7-0.1-20.3c-0.3-5.7,2.4-9.2,7.3-11.4c2.1-0.9,4.3-1.7,6.5-2.5c2-0.7,3.2-1.9,2.7-4.1
				c-1-4.1-1.9-8.3-3.3-12.3c-1.8-5.1-2.5-10.1-0.9-15.2c2.6-8.4,10.6-13.1,19.3-11.5c8.5,1.6,14.4,9.5,13.5,18.7
				c-0.4,3.6-1.8,7-2.7,10.6c-0.7,2.3-1.6,4.6-2.1,7c-0.8,3.8-0.1,4.8,3.5,6.3c1.1,0.5,2.3,0.8,3.8,1.4c0.3-3.5,0.6-6.7,0.9-9.9
				c0.3-3.2,0.6-6.5,0.9-9.7c0.5-7,2.6-13.3,8-18.2c1.5-1.3,2.6-3,4.1-4.8c-0.8-0.4-1.4-0.7-2-1c-10.6-4.5-16.7-16.6-14-27.8
				c3.4-13.9,19.2-20.3,31.1-12.3c8,5.4,12.7,12.6,11.3,22.9c-0.8,5.9-0.5,6,5.4,5.8c4-0.2,7.9-0.7,11.9-0.4c7,0.6,12.2,4.7,16.5,10
				c7.1,8.8,10.6,19.1,12.4,30.1C44.6,438.3,45.8,454.3,43.7,471z M-19.1,470.8c19,0,37.8,0,56.7,0c2.3-17,0.9-33.6-2.1-50.2
				c-1.7-9.3-5-18-11.2-25.3c-4.5-5.3-9.9-8.1-17.2-7.1c-3.4,0.5-6.9,0.5-10.3,0.4c-4.4-0.2-6.7-2.5-7.1-6.8c-0.2-2,0-4.1,0.1-6.1
				c0.6-8.4-4.5-16.1-12.6-18.6c-2-0.6-4.3-0.8-6.3-0.4c-8.9,1.7-13.9,9.9-11.8,18.8c1.6,7,5.6,11.7,12.6,13.9
				c5.7,1.7,6.3,4.1,2.6,8.8c-2.2,2.8-4.9,5.3-6.8,8.2c-1.6,2.4-3.3,5.3-3.6,8.1c-2.1,19.6-3.8,39.2-5.7,58.8
				c-0.6,5.8-1.2,11.5-5.2,16.2c-0.6,0.7-0.9,1.7-1.4,2.6c1.3,0,2.3-0.3,3-1c1.1-1.2,2.1-2.5,3-3.8c1-1.4,2-2.1,3.8-1.2
				c2.1,1,3.6,0.1,4.2-2.1c0.4-1.4,0.5-2.8,0.7-4.2c0.6-5.4,0.8-10.9,1.7-16.2c1.3-7.8,3.2-15.5,4.8-23.5
				C-18.9,449.2-21.1,460.5-19.1,470.8z M-47.6,470.8c0.2-0.7,0.4-1.3,0.4-1.9c0.5-5.6,1-11.1,1.4-16.7c0.2-2.3,1.2-5.1,0.2-6.8
				c-0.9-1.6-3.9-2.1-6-3c-5.8-2.6-8-6.5-6.8-13c0.7-3.5,2-6.8,3-10.2c0.6-2.1,1.5-4.2,1.8-6.4c1-6.5-3.3-12.4-9.4-13
				c-6.4-0.6-11.3,4-11.2,11.1c0,2.8,1,5.5,1.7,8.3c0.9,3.4,2.3,6.7,3,10.2c1.3,6.7-1.1,10.7-7.3,13.3c-0.8,0.3-1.7,0.6-2.6,0.9
				c-6.2,2.2-6.6,2.8-6.6,9.4c0,6,0,11.9,0,17.9C-72.9,470.8-60.3,470.8-47.6,470.8z"/>
		</g>
	</g>
</g>
<g id="Layer_2">
</g>
</svg>
